<svg width="68" height="14" viewBox="0 0 68 14" fill="none" xmlns="http://www.w3.org/2000/svg">
<path d="M9.54037 -9.89437e-06V10.9275H8.22037C8.02537 10.9275 7.86037 10.8975 7.72537 10.8375C7.59537 10.7725 7.46537 10.6625 7.33537 10.5075L2.18287 3.98999C2.20287 4.18499 2.21537 4.37499 2.22037 4.55999C2.23037 4.73999 2.23537 4.90999 2.23537 5.06999V10.9275H0.000371113V-9.89437e-06H1.33537C1.44537 -9.89437e-06 1.53787 0.00499004 1.61287 0.0149899C1.68787 0.0249898 1.75537 0.0449898 1.81537 0.07499C1.87537 0.09999 1.93287 0.13749 1.98787 0.18749C2.04287 0.23749 2.10537 0.30499 2.17537 0.38999L7.37287 6.95249C7.34787 6.74249 7.33037 6.53999 7.32037 6.34499C7.31037 6.14499 7.30537 5.95749 7.30537 5.78249V-9.89437e-06H9.54037ZM15.9937 6.10499C15.9937 5.91999 15.9687 5.73999 15.9187 5.56499C15.8737 5.38999 15.7962 5.23499 15.6862 5.09999C15.5812 4.95999 15.4412 4.84749 15.2662 4.76249C15.0912 4.67749 14.8787 4.63499 14.6287 4.63499C14.1887 4.63499 13.8437 4.76249 13.5937 5.01749C13.3437 5.26749 13.1787 5.62999 13.0987 6.10499H15.9937ZM13.0687 7.45499C13.1437 8.10499 13.3412 8.57749 13.6612 8.87249C13.9812 9.16249 14.3937 9.30749 14.8987 9.30749C15.1687 9.30749 15.4012 9.27499 15.5962 9.20999C15.7912 9.14499 15.9637 9.07249 16.1137 8.99249C16.2687 8.91249 16.4087 8.83999 16.5337 8.77499C16.6637 8.70999 16.7987 8.67749 16.9387 8.67749C17.1237 8.67749 17.2637 8.74499 17.3587 8.87999L18.0337 9.71249C17.7937 9.98749 17.5337 10.2125 17.2537 10.3875C16.9787 10.5575 16.6937 10.6925 16.3987 10.7925C16.1087 10.8875 15.8162 10.9525 15.5212 10.9875C15.2312 11.0275 14.9537 11.0475 14.6887 11.0475C14.1437 11.0475 13.6312 10.96 13.1512 10.785C12.6762 10.605 12.2587 10.34 11.8987 9.98999C11.5437 9.63999 11.2612 9.20499 11.0512 8.68499C10.8462 8.16499 10.7437 7.55999 10.7437 6.86999C10.7437 6.34999 10.8312 5.85749 11.0062 5.39249C11.1862 4.92749 11.4412 4.51999 11.7712 4.16999C12.1062 3.81999 12.5087 3.54249 12.9787 3.33749C13.4537 3.13249 13.9887 3.02999 14.5837 3.02999C15.0987 3.02999 15.5687 3.10999 15.9937 3.26999C16.4237 3.42999 16.7912 3.66249 17.0962 3.96749C17.4062 4.27249 17.6462 4.64749 17.8162 5.09249C17.9912 5.53249 18.0787 6.03249 18.0787 6.59249C18.0787 6.76749 18.0712 6.90999 18.0562 7.01999C18.0412 7.12999 18.0137 7.21749 17.9737 7.28249C17.9337 7.34749 17.8787 7.39249 17.8087 7.41749C17.7437 7.44249 17.6587 7.45499 17.5537 7.45499H13.0687ZM26.5503 10.9275H24.3153C24.1503 10.9275 24.0153 10.8875 23.9103 10.8075C23.8103 10.7275 23.7303 10.6325 23.6703 10.5225L22.2828 8.13749C22.2578 8.22249 22.2278 8.30249 22.1928 8.37749C22.1578 8.45249 22.1203 8.52249 22.0803 8.58749L20.9403 10.5225C20.8703 10.6225 20.7878 10.715 20.6928 10.8C20.5978 10.885 20.4753 10.9275 20.3253 10.9275H18.2553L20.8653 6.90749L18.3603 3.14999H20.5953C20.7603 3.14999 20.8803 3.17249 20.9553 3.21749C21.0353 3.25749 21.1053 3.32749 21.1653 3.42749L22.5528 5.72999C22.5828 5.63999 22.6203 5.55249 22.6653 5.46749C22.7103 5.37749 22.7603 5.28749 22.8153 5.19749L23.8053 3.46499C23.8753 3.35499 23.9478 3.27499 24.0228 3.22499C24.1028 3.17499 24.2003 3.14999 24.3153 3.14999H26.4453L23.9403 6.80249L26.5503 10.9275ZM30.0519 11.0475C29.6819 11.0475 29.3544 10.995 29.0694 10.89C28.7894 10.78 28.5519 10.6275 28.3569 10.4325C28.1669 10.2325 28.0219 9.99249 27.9219 9.71249C27.8219 9.43249 27.7719 9.11999 27.7719 8.77499V4.75499H27.1119C26.9919 4.75499 26.8894 4.71749 26.8044 4.64249C26.7194 4.56249 26.6769 4.44749 26.6769 4.29749V3.38999L27.9144 3.14999L28.3719 1.25249C28.4319 1.01249 28.6019 0.89249 28.8819 0.89249H30.0969V3.16499H32.0244V4.75499H30.0969V8.61749C30.0969 8.79749 30.1394 8.94749 30.2244 9.06749C30.3144 9.18249 30.4419 9.23999 30.6069 9.23999C30.6919 9.23999 30.7619 9.23249 30.8169 9.21749C30.8769 9.19749 30.9269 9.17749 30.9669 9.15749C31.0119 9.13249 31.0519 9.11249 31.0869 9.09749C31.1269 9.07749 31.1719 9.06749 31.2219 9.06749C31.2919 9.06749 31.3469 9.08499 31.3869 9.11999C31.4319 9.14999 31.4769 9.19999 31.5219 9.26999L32.2269 10.3725C31.9269 10.5975 31.5894 10.7675 31.2144 10.8825C30.8394 10.9925 30.4519 11.0475 30.0519 11.0475ZM38.8229 8.81249C38.9979 9.00249 39.1879 9.13749 39.3929 9.21749C39.5979 9.29749 39.8129 9.33749 40.0379 9.33749C40.2529 9.33749 40.4504 9.29499 40.6304 9.20999C40.8104 9.12499 40.9654 8.98999 41.0954 8.80499C41.2304 8.61499 41.3354 8.36999 41.4104 8.06999C41.4854 7.76999 41.5229 7.40499 41.5229 6.97499C41.5229 6.56499 41.4929 6.21999 41.4329 5.93999C41.3729 5.65999 41.2879 5.43499 41.1779 5.26499C41.0729 5.08999 40.9454 4.96499 40.7954 4.88999C40.6454 4.81499 40.4779 4.77749 40.2929 4.77749C39.9529 4.77749 39.6729 4.83999 39.4529 4.96499C39.2329 5.08999 39.0229 5.27249 38.8229 5.51249V8.81249ZM38.6804 4.10999C38.9854 3.78499 39.3304 3.51999 39.7154 3.31499C40.1054 3.10499 40.5679 2.99999 41.1029 2.99999C41.5079 2.99999 41.8829 3.08999 42.2279 3.26999C42.5729 3.44999 42.8704 3.70999 43.1204 4.04999C43.3704 4.38999 43.5655 4.80749 43.7054 5.30249C43.8504 5.79249 43.9229 6.34999 43.9229 6.97499C43.9229 7.55999 43.8404 8.09999 43.6754 8.59499C43.5154 9.08999 43.2879 9.51999 42.9929 9.88499C42.7029 10.25 42.3529 10.535 41.9429 10.74C41.5379 10.945 41.0879 11.0475 40.5929 11.0475C40.1879 11.0475 39.8479 10.99 39.5729 10.875C39.2979 10.76 39.0479 10.605 38.8229 10.41V13.395H36.4979V3.14999H37.9379C38.2279 3.14999 38.4179 3.27999 38.5079 3.53999L38.6804 4.10999ZM49.1384 7.76249C48.6734 7.78249 48.2909 7.82249 47.9909 7.88249C47.6909 7.94249 47.4534 8.01749 47.2784 8.10749C47.1034 8.19749 46.9809 8.29999 46.9109 8.41499C46.8459 8.52999 46.8134 8.65499 46.8134 8.78999C46.8134 9.05499 46.8859 9.24249 47.0309 9.35249C47.1759 9.45749 47.3884 9.50999 47.6684 9.50999C47.9684 9.50999 48.2309 9.45749 48.4559 9.35249C48.6809 9.24749 48.9084 9.07749 49.1384 8.84249V7.76249ZM44.9534 4.22999C45.4234 3.81499 45.9434 3.50749 46.5134 3.30749C47.0884 3.10249 47.7034 2.99999 48.3584 2.99999C48.8284 2.99999 49.2509 3.07749 49.6259 3.23249C50.0059 3.38249 50.3259 3.59499 50.5859 3.86999C50.8509 4.13999 51.0534 4.46249 51.1934 4.83749C51.3334 5.21249 51.4034 5.62249 51.4034 6.06749V10.9275H50.3384C50.1184 10.9275 49.9509 10.8975 49.8359 10.8375C49.7259 10.7775 49.6334 10.6525 49.5584 10.4625L49.3934 10.035C49.1984 10.2 49.0109 10.345 48.8309 10.47C48.6509 10.595 48.4634 10.7025 48.2684 10.7925C48.0784 10.8775 47.8734 10.94 47.6534 10.98C47.4384 11.025 47.1984 11.0475 46.9334 11.0475C46.5784 11.0475 46.2559 11.0025 45.9659 10.9125C45.6759 10.8175 45.4284 10.68 45.2234 10.5C45.0234 10.32 44.8684 10.0975 44.7584 9.83249C44.6484 9.56249 44.5934 9.25249 44.5934 8.90249C44.5934 8.62249 44.6634 8.33999 44.8034 8.05499C44.9434 7.76499 45.1859 7.50249 45.5309 7.26749C45.8759 7.02749 46.3409 6.82749 46.9259 6.66749C47.5109 6.50749 48.2484 6.41749 49.1384 6.39749V6.06749C49.1384 5.61249 49.0434 5.28499 48.8534 5.08499C48.6684 4.87999 48.4034 4.77749 48.0584 4.77749C47.7834 4.77749 47.5584 4.80749 47.3834 4.86749C47.2084 4.92749 47.0509 4.99499 46.9109 5.06999C46.7759 5.14499 46.6434 5.21249 46.5134 5.27249C46.3834 5.33249 46.2284 5.36249 46.0484 5.36249C45.8884 5.36249 45.7534 5.32249 45.6434 5.24249C45.5334 5.16249 45.4434 5.06749 45.3734 4.95749L44.9534 4.22999ZM55.8521 6.62999C56.2371 6.62999 56.5146 6.53499 56.6846 6.34499C56.8596 6.14999 56.9471 5.89999 56.9471 5.59499C56.9471 5.27999 56.8596 5.03249 56.6846 4.85249C56.5146 4.67249 56.2371 4.58249 55.8521 4.58249C55.4671 4.58249 55.1871 4.67249 55.0121 4.85249C54.8421 5.03249 54.7571 5.27999 54.7571 5.59499C54.7571 5.74499 54.7771 5.88249 54.8171 6.00749C54.8621 6.13249 54.9296 6.24249 55.0196 6.33749C55.1096 6.42749 55.2221 6.49999 55.3571 6.55499C55.4971 6.60499 55.6621 6.62999 55.8521 6.62999ZM57.6521 11.2125C57.6521 11.0275 57.5696 10.895 57.4046 10.815C57.2396 10.73 57.0246 10.67 56.7596 10.635C56.4946 10.6 56.1971 10.58 55.8671 10.575C55.5421 10.565 55.2171 10.545 54.8921 10.515C54.7471 10.615 54.6271 10.7275 54.5321 10.8525C54.4421 10.9725 54.3971 11.11 54.3971 11.265C54.3971 11.375 54.4196 11.475 54.4646 11.565C54.5146 11.655 54.5996 11.7325 54.7196 11.7975C54.8396 11.8625 54.9996 11.9125 55.1996 11.9475C55.4046 11.9875 55.6621 12.0075 55.9721 12.0075C56.3071 12.0075 56.5821 11.9875 56.7971 11.9475C57.0121 11.9075 57.1821 11.8525 57.3071 11.7825C57.4371 11.7125 57.5271 11.6275 57.5771 11.5275C57.6271 11.4325 57.6521 11.3275 57.6521 11.2125ZM59.9471 3.38999V4.23749C59.9471 4.36749 59.9096 4.46999 59.8346 4.54499C59.7646 4.61999 59.6421 4.67749 59.4671 4.71749L58.9046 4.84499C58.9346 4.95499 58.9571 5.06749 58.9721 5.18249C58.9921 5.29749 59.0021 5.41749 59.0021 5.54249C59.0021 5.93249 58.9196 6.28249 58.7546 6.59249C58.5946 6.90249 58.3721 7.16749 58.0871 7.38749C57.8071 7.60249 57.4746 7.76999 57.0896 7.88999C56.7046 8.00499 56.2921 8.06249 55.8521 8.06249C55.7321 8.06249 55.6146 8.05999 55.4996 8.05499C55.3846 8.04499 55.2721 8.02999 55.1621 8.00999C54.9921 8.11499 54.9071 8.23249 54.9071 8.36249C54.9071 8.49249 54.9771 8.58749 55.1171 8.64749C55.2571 8.70249 55.4421 8.74249 55.6721 8.76749C55.9021 8.78749 56.1621 8.80249 56.4521 8.81249C56.7471 8.81749 57.0471 8.83499 57.3521 8.86499C57.6571 8.88999 57.9546 8.93499 58.2446 8.99999C58.5396 9.06499 58.8021 9.16999 59.0321 9.31499C59.2621 9.45999 59.4471 9.65499 59.5871 9.89999C59.7271 10.14 59.7971 10.4475 59.7971 10.8225C59.7971 11.1725 59.7121 11.515 59.5421 11.85C59.3721 12.185 59.1221 12.4825 58.7921 12.7425C58.4621 13.0025 58.0571 13.21 57.5771 13.365C57.0971 13.525 56.5471 13.605 55.9271 13.605C55.3171 13.605 54.7896 13.5475 54.3446 13.4325C53.9046 13.3175 53.5371 13.165 53.2421 12.975C52.9521 12.79 52.7371 12.575 52.5971 12.33C52.4571 12.085 52.3871 11.83 52.3871 11.565C52.3871 11.22 52.4871 10.9325 52.6871 10.7025C52.8871 10.4725 53.1671 10.2875 53.5271 10.1475C53.3371 10.0325 53.1871 9.88499 53.0771 9.70499C52.9671 9.52499 52.9121 9.29249 52.9121 9.00749C52.9121 8.89249 52.9321 8.77249 52.9721 8.64749C53.0121 8.51749 53.0746 8.39249 53.1596 8.27249C53.2496 8.14749 53.3596 8.02999 53.4896 7.91999C53.6196 7.80999 53.7746 7.71249 53.9546 7.62749C53.5496 7.41249 53.2296 7.12999 52.9946 6.77999C52.7596 6.42499 52.6421 6.01249 52.6421 5.54249C52.6421 5.15249 52.7246 4.80249 52.8896 4.49249C53.0546 4.17749 53.2796 3.91249 53.5646 3.69749C53.8546 3.47749 54.1946 3.30999 54.5846 3.19499C54.9746 3.07499 55.3971 3.01499 55.8521 3.01499C56.5121 3.01499 57.0971 3.13999 57.6071 3.38999H59.9471ZM65.6079 6.10499C65.6079 5.91999 65.5829 5.73999 65.5329 5.56499C65.4879 5.38999 65.4104 5.23499 65.3004 5.09999C65.1954 4.95999 65.0554 4.84749 64.8804 4.76249C64.7054 4.67749 64.4929 4.63499 64.2429 4.63499C63.8029 4.63499 63.4579 4.76249 63.2079 5.01749C62.9579 5.26749 62.7929 5.62999 62.7129 6.10499H65.6079ZM62.6829 7.45499C62.7579 8.10499 62.9554 8.57749 63.2754 8.87249C63.5954 9.16249 64.0079 9.30749 64.5129 9.30749C64.7829 9.30749 65.0154 9.27499 65.2104 9.20999C65.4054 9.14499 65.5779 9.07249 65.7279 8.99249C65.8829 8.91249 66.0229 8.83999 66.1479 8.77499C66.2779 8.70999 66.4129 8.67749 66.5529 8.67749C66.7379 8.67749 66.8779 8.74499 66.9729 8.87999L67.6479 9.71249C67.4079 9.98749 67.1479 10.2125 66.8679 10.3875C66.5929 10.5575 66.3079 10.6925 66.0129 10.7925C65.7229 10.8875 65.4304 10.9525 65.1354 10.9875C64.8454 11.0275 64.5679 11.0475 64.3029 11.0475C63.7579 11.0475 63.2454 10.96 62.7654 10.785C62.2904 10.605 61.8729 10.34 61.5129 9.98999C61.1579 9.63999 60.8754 9.20499 60.6654 8.68499C60.4604 8.16499 60.3579 7.55999 60.3579 6.86999C60.3579 6.34999 60.4454 5.85749 60.6204 5.39249C60.8004 4.92749 61.0554 4.51999 61.3854 4.16999C61.7204 3.81999 62.1229 3.54249 62.5929 3.33749C63.0679 3.13249 63.6029 3.02999 64.1979 3.02999C64.7129 3.02999 65.1829 3.10999 65.6079 3.26999C66.0379 3.42999 66.4054 3.66249 66.7104 3.96749C67.0204 4.27249 67.2604 4.64749 67.4304 5.09249C67.6054 5.53249 67.6929 6.03249 67.6929 6.59249C67.6929 6.76749 67.6854 6.90999 67.6704 7.01999C67.6554 7.12999 67.6279 7.21749 67.5879 7.28249C67.5479 7.34749 67.4929 7.39249 67.4229 7.41749C67.3579 7.44249 67.2729 7.45499 67.1679 7.45499H62.6829Z" fill="#F48924"/>
</svg>
