<svg width="69" height="18" viewBox="0 0 69 18" fill="none" xmlns="http://www.w3.org/2000/svg">
<path d="M10.5572 3.86408C10.4422 4.04808 10.3196 4.18608 10.1892 4.27808C10.0666 4.37008 9.90556 4.41608 9.70622 4.41608C9.52989 4.41608 9.33822 4.36241 9.13122 4.25508C8.93189 4.14008 8.70189 4.01358 8.44122 3.87558C8.18822 3.73758 7.89689 3.61491 7.56722 3.50758C7.23756 3.39258 6.86189 3.33508 6.44022 3.33508C5.71189 3.33508 5.16756 3.49224 4.80722 3.80658C4.45456 4.11324 4.27822 4.53108 4.27822 5.06008C4.27822 5.39741 4.38556 5.67724 4.60022 5.89958C4.81489 6.12191 5.09472 6.31358 5.43972 6.47458C5.79239 6.63558 6.19106 6.78508 6.63572 6.92308C7.08806 7.05341 7.54806 7.20291 8.01572 7.37158C8.48339 7.53258 8.93956 7.72424 9.38422 7.94658C9.83656 8.16891 10.2352 8.45258 10.5802 8.79758C10.9329 9.14258 11.2166 9.56424 11.4312 10.0626C11.6459 10.5532 11.7532 11.1474 11.7532 11.8451C11.7532 12.6194 11.6191 13.3439 11.3507 14.0186C11.0824 14.6932 10.6914 15.2836 10.1777 15.7896C9.67172 16.2879 9.04306 16.6827 8.29172 16.9741C7.54806 17.2577 6.70089 17.3996 5.75022 17.3996C5.22889 17.3996 4.69606 17.3459 4.15172 17.2386C3.61506 17.1312 3.09372 16.9817 2.58772 16.7901C2.08172 16.5907 1.60639 16.3569 1.16172 16.0886C0.717056 15.8202 0.329889 15.5212 0.000222666 15.1916L1.15022 13.3746C1.24222 13.2442 1.36106 13.1369 1.50672 13.0526C1.66006 12.9606 1.82489 12.9146 2.00122 12.9146C2.23122 12.9146 2.46122 12.9874 2.69122 13.1331C2.92889 13.2787 3.19339 13.4397 3.48472 13.6161C3.78372 13.7924 4.12489 13.9534 4.50822 14.0991C4.89156 14.2447 5.34389 14.3176 5.86522 14.3176C6.57056 14.3176 7.11872 14.1642 7.50972 13.8576C7.90072 13.5432 8.09622 13.0487 8.09622 12.3741C8.09622 11.9831 7.98889 11.6649 7.77422 11.4196C7.55956 11.1742 7.27589 10.9711 6.92322 10.8101C6.57822 10.6491 6.18339 10.5072 5.73872 10.3846C5.29406 10.2619 4.83789 10.1277 4.37022 9.98208C3.90256 9.82874 3.44639 9.64474 3.00172 9.43008C2.55706 9.20774 2.15839 8.92024 1.80572 8.56758C1.46072 8.20724 1.18089 7.76258 0.966223 7.23358C0.751556 6.69691 0.644223 6.03758 0.644223 5.25558C0.644223 4.62691 0.770723 4.01358 1.02372 3.41558C1.27672 2.81758 1.64856 2.28474 2.13922 1.81707C2.62989 1.34941 3.23172 0.977575 3.94472 0.701575C4.65772 0.417909 5.47422 0.276076 6.39422 0.276076C6.90789 0.276076 7.40622 0.318242 7.88922 0.402576C8.37989 0.479243 8.84372 0.598076 9.28072 0.759075C9.71772 0.912409 10.1241 1.10024 10.4997 1.32258C10.8831 1.53724 11.2242 1.78258 11.5232 2.05858L10.5572 3.86408ZM21.0386 9.82108C21.0386 9.53741 21.0002 9.26141 20.9236 8.99308C20.8546 8.72474 20.7357 8.48708 20.5671 8.28008C20.4061 8.06541 20.1914 7.89291 19.9231 7.76258C19.6547 7.63224 19.3289 7.56708 18.9456 7.56708C18.2709 7.56708 17.7419 7.76258 17.3586 8.15358C16.9752 8.53691 16.7222 9.09274 16.5996 9.82108H21.0386ZM16.5536 11.8911C16.6686 12.8877 16.9714 13.6122 17.4621 14.0646C17.9527 14.5092 18.5852 14.7316 19.3596 14.7316C19.7736 14.7316 20.1301 14.6817 20.4291 14.5821C20.7281 14.4824 20.9926 14.3712 21.2226 14.2486C21.4602 14.1259 21.6749 14.0147 21.8666 13.9151C22.0659 13.8154 22.2729 13.7656 22.4876 13.7656C22.7712 13.7656 22.9859 13.8691 23.1316 14.0761L24.1666 15.3526C23.7986 15.7742 23.3999 16.1192 22.9706 16.3876C22.5489 16.6482 22.1119 16.8552 21.6596 17.0086C21.2149 17.1542 20.7664 17.2539 20.3141 17.3076C19.8694 17.3689 19.4439 17.3996 19.0376 17.3996C18.2019 17.3996 17.4161 17.2654 16.6801 16.9971C15.9517 16.7211 15.3116 16.3147 14.7596 15.7781C14.2152 15.2414 13.7821 14.5744 13.4601 13.7771C13.1457 12.9797 12.9886 12.0521 12.9886 10.9941C12.9886 10.1967 13.1227 9.44158 13.3911 8.72858C13.6671 8.01558 14.0581 7.39074 14.5641 6.85408C15.0777 6.31741 15.6949 5.89191 16.4156 5.57758C17.1439 5.26324 17.9642 5.10608 18.8766 5.10608C19.6662 5.10608 20.3869 5.22874 21.0386 5.47408C21.6979 5.71941 22.2614 6.07591 22.7291 6.54358C23.2044 7.01124 23.5724 7.58624 23.8331 8.26858C24.1014 8.94324 24.2356 9.70991 24.2356 10.5686C24.2356 10.8369 24.2241 11.0554 24.2011 11.2241C24.1781 11.3927 24.1359 11.5269 24.0746 11.6266C24.0132 11.7262 23.9289 11.7952 23.8216 11.8336C23.7219 11.8719 23.5916 11.8911 23.4306 11.8911H16.5536ZM32.172 12.3626C31.459 12.3932 30.8725 12.4546 30.4125 12.5466C29.9525 12.6386 29.5883 12.7536 29.32 12.8916C29.0517 13.0296 28.8638 13.1867 28.7565 13.3631C28.6568 13.5394 28.607 13.7311 28.607 13.9381C28.607 14.3444 28.7182 14.6319 28.9405 14.8006C29.1628 14.9616 29.4887 15.0421 29.918 15.0421C30.378 15.0421 30.7805 14.9616 31.1255 14.8006C31.4705 14.6396 31.8193 14.3789 32.172 14.0186V12.3626ZM25.755 6.94608C26.4757 6.30974 27.273 5.83824 28.147 5.53158C29.0287 5.21724 29.9717 5.06008 30.976 5.06008C31.6967 5.06008 32.3445 5.17891 32.9195 5.41658C33.5022 5.64658 33.9928 5.97241 34.3915 6.39408C34.7978 6.80808 35.1083 7.30258 35.323 7.87758C35.5377 8.45258 35.645 9.08124 35.645 9.76358V17.2156H34.012C33.6747 17.2156 33.4178 17.1696 33.2415 17.0776C33.0728 16.9856 32.931 16.7939 32.816 16.5026L32.563 15.8471C32.264 16.1001 31.9765 16.3224 31.7005 16.5141C31.4245 16.7057 31.137 16.8706 30.838 17.0086C30.5467 17.1389 30.2323 17.2347 29.895 17.2961C29.5653 17.3651 29.1973 17.3996 28.791 17.3996C28.2467 17.3996 27.7522 17.3306 27.3075 17.1926C26.8628 17.0469 26.4833 16.8361 26.169 16.5601C25.8623 16.2841 25.6247 15.9429 25.456 15.5366C25.2873 15.1226 25.203 14.6472 25.203 14.1106C25.203 13.6812 25.3103 13.2481 25.525 12.8111C25.7397 12.3664 26.1115 11.9639 26.6405 11.6036C27.1695 11.2356 27.8825 10.9289 28.7795 10.6836C29.6765 10.4382 30.8073 10.3002 32.172 10.2696V9.76358C32.172 9.06591 32.0263 8.56374 31.735 8.25708C31.4513 7.94274 31.045 7.78558 30.516 7.78558C30.0943 7.78558 29.7493 7.83158 29.481 7.92358C29.2127 8.01558 28.9712 8.11908 28.7565 8.23408C28.5495 8.34908 28.3463 8.45258 28.147 8.54458C27.9477 8.63658 27.71 8.68258 27.434 8.68258C27.1887 8.68258 26.9817 8.62124 26.813 8.49858C26.6443 8.37591 26.5063 8.23024 26.399 8.06158L25.755 6.94608ZM41.2588 7.13008C41.6268 6.48608 42.0485 5.98008 42.5238 5.61208C43.0068 5.24408 43.5588 5.06008 44.1798 5.06008C44.7165 5.06008 45.1535 5.18658 45.4908 5.43958L45.2608 8.06158C45.2225 8.23024 45.1573 8.34524 45.0653 8.40658C44.981 8.46791 44.8621 8.49858 44.7088 8.49858C44.6475 8.49858 44.567 8.49474 44.4673 8.48708C44.3676 8.47941 44.2641 8.47174 44.1568 8.46408C44.0495 8.44874 43.9383 8.43724 43.8233 8.42958C43.716 8.41424 43.6163 8.40658 43.5243 8.40658C43.003 8.40658 42.5851 8.54458 42.2708 8.82058C41.9641 9.09658 41.7035 9.47991 41.4888 9.97058V17.2156H37.9238V5.29008H40.0398C40.2161 5.29008 40.3618 5.30541 40.4768 5.33608C40.5995 5.36674 40.6991 5.41658 40.7758 5.48558C40.8601 5.54691 40.9215 5.63124 40.9598 5.73858C41.0058 5.84591 41.0441 5.97624 41.0748 6.12958L41.2588 7.13008ZM55.2669 8.11908C55.1596 8.24941 55.0561 8.35291 54.9564 8.42958C54.8567 8.50624 54.7149 8.54458 54.5309 8.54458C54.3546 8.54458 54.1936 8.50241 54.0479 8.41808C53.9099 8.33374 53.7527 8.24174 53.5764 8.14208C53.4001 8.03474 53.1931 7.93891 52.9554 7.85458C52.7177 7.77024 52.4226 7.72808 52.0699 7.72808C51.6329 7.72808 51.2534 7.80858 50.9314 7.96958C50.6171 8.13058 50.3564 8.36058 50.1494 8.65958C49.9424 8.95858 49.7891 9.32658 49.6894 9.76358C49.5897 10.1929 49.5399 10.6797 49.5399 11.2241C49.5399 12.3664 49.7584 13.2442 50.1954 13.8576C50.6401 14.4709 51.2496 14.7776 52.0239 14.7776C52.4379 14.7776 52.7637 14.7277 53.0014 14.6281C53.2467 14.5207 53.4537 14.4057 53.6224 14.2831C53.7911 14.1527 53.9444 14.0339 54.0824 13.9266C54.2281 13.8192 54.4082 13.7656 54.6229 13.7656C54.9066 13.7656 55.1212 13.8691 55.2669 14.0761L56.3019 15.3526C55.9339 15.7742 55.5467 16.1192 55.1404 16.3876C54.7341 16.6482 54.3162 16.8552 53.8869 17.0086C53.4652 17.1542 53.0397 17.2539 52.6104 17.3076C52.1811 17.3689 51.7632 17.3996 51.3569 17.3996C50.6286 17.3996 49.9309 17.2616 49.2639 16.9856C48.6046 16.7096 48.0219 16.3109 47.5159 15.7896C47.0176 15.2606 46.6189 14.6127 46.3199 13.8461C46.0286 13.0794 45.8829 12.2054 45.8829 11.2241C45.8829 10.3654 46.0094 9.56424 46.2624 8.82058C46.5231 8.06924 46.9026 7.42141 47.4009 6.87708C47.9069 6.32508 48.5279 5.89191 49.2639 5.57758C50.0076 5.26324 50.8662 5.10608 51.8399 5.10608C52.7752 5.10608 53.5956 5.25558 54.3009 5.55458C55.0062 5.85358 55.6426 6.29058 56.2099 6.86558L55.2669 8.11908ZM61.2544 6.33658C61.6838 5.96858 62.1476 5.67341 62.6459 5.45108C63.1519 5.22108 63.7538 5.10608 64.4514 5.10608C65.1031 5.10608 65.6781 5.22108 66.1764 5.45108C66.6824 5.67341 67.1079 5.98774 67.4529 6.39408C67.7979 6.79274 68.0586 7.27191 68.2349 7.83158C68.4113 8.38358 68.4994 8.98541 68.4994 9.63708V17.2156H64.9344V9.63708C64.9344 9.05441 64.8003 8.60208 64.5319 8.28008C64.2636 7.95041 63.8688 7.78558 63.3474 7.78558C62.9564 7.78558 62.5884 7.86991 62.2434 8.03858C61.9061 8.19958 61.5764 8.42191 61.2544 8.70558V17.2156H57.6894V7.50422e-05H61.2544V6.33658Z" fill="#FF5524"/>
</svg>
