<svg width="229" height="35" viewBox="0 0 229 35" fill="none" xmlns="http://www.w3.org/2000/svg">
<path d="M16.9829 6.32692C16.7979 6.62292 16.6006 6.84492 16.3909 6.99292C16.1936 7.14092 15.9346 7.21492 15.6139 7.21492C15.3303 7.21492 15.0219 7.12859 14.6889 6.95592C14.3683 6.77092 13.9983 6.56742 13.5789 6.34542C13.1719 6.12342 12.7033 5.92609 12.1729 5.75342C11.6426 5.56842 11.0383 5.47592 10.3599 5.47592C9.18827 5.47592 8.3126 5.72875 7.73293 6.23442C7.1656 6.72775 6.88193 7.39992 6.88193 8.25092C6.88193 8.79359 7.0546 9.24375 7.39993 9.60142C7.74527 9.95909 8.19543 10.2674 8.75043 10.5264C9.31777 10.7854 9.9591 11.0259 10.6744 11.2479C11.4021 11.4576 12.1421 11.6981 12.8944 11.9694C13.6468 12.2284 14.3806 12.5368 15.0959 12.8944C15.8236 13.2521 16.4649 13.7084 17.0199 14.2634C17.5873 14.8184 18.0436 15.4968 18.3889 16.2984C18.7343 17.0878 18.9069 18.0436 18.9069 19.1659C18.9069 20.4116 18.6911 21.5771 18.2594 22.6624C17.8278 23.7478 17.1988 24.6974 16.3724 25.5114C15.5584 26.3131 14.5471 26.9483 13.3384 27.4169C12.1421 27.8733 10.7793 28.1014 9.24993 28.1014C8.41127 28.1014 7.5541 28.0151 6.67843 27.8424C5.8151 27.6698 4.97643 27.4293 4.16243 27.1209C3.34843 26.8003 2.58377 26.4241 1.86843 25.9924C1.1531 25.5608 0.530267 25.0798 -6.63903e-05 24.5494L1.84993 21.6264C1.99793 21.4168 2.1891 21.2441 2.42343 21.1084C2.6701 20.9604 2.93527 20.8864 3.21893 20.8864C3.58893 20.8864 3.95893 21.0036 4.32893 21.2379C4.71127 21.4723 5.13677 21.7313 5.60543 22.0149C6.08643 22.2986 6.63527 22.5576 7.25193 22.7919C7.8686 23.0263 8.59627 23.1434 9.43493 23.1434C10.5696 23.1434 11.4514 22.8968 12.0804 22.4034C12.7094 21.8978 13.0239 21.1023 13.0239 20.0169C13.0239 19.3879 12.8513 18.8761 12.5059 18.4814C12.1606 18.0868 11.7043 17.7599 11.1369 17.5009C10.5819 17.2419 9.94677 17.0138 9.23143 16.8164C8.5161 16.6191 7.78227 16.4033 7.02993 16.1689C6.2776 15.9223 5.54377 15.6263 4.82843 15.2809C4.1131 14.9233 3.47177 14.4608 2.90443 13.8934C2.34943 13.3138 1.89927 12.5984 1.55393 11.7474C1.2086 10.8841 1.03593 9.82342 1.03593 8.56542C1.03593 7.55408 1.23943 6.56742 1.64643 5.60542C2.05343 4.64342 2.6516 3.78625 3.44093 3.03392C4.23027 2.28158 5.19843 1.68342 6.34543 1.23942C7.49243 0.783085 8.80593 0.554919 10.2859 0.554919C11.1123 0.554919 11.9139 0.622753 12.6909 0.75842C13.4803 0.881753 14.2264 1.07292 14.9294 1.33192C15.6324 1.57859 16.2861 1.88075 16.8904 2.23842C17.5071 2.58375 18.0559 2.97842 18.5369 3.42242L16.9829 6.32692ZM33.8442 15.9099C33.8442 15.4536 33.7826 15.0096 33.6592 14.5779C33.5482 14.1463 33.3571 13.7639 33.0857 13.4309C32.8267 13.0856 32.4814 12.8081 32.0497 12.5984C31.6181 12.3888 31.0939 12.2839 30.4772 12.2839C29.3919 12.2839 28.5409 12.5984 27.9242 13.2274C27.3076 13.8441 26.9006 14.7383 26.7032 15.9099H33.8442ZM26.6292 19.2399C26.8142 20.8433 27.3014 22.0088 28.0907 22.7364C28.8801 23.4518 29.8976 23.8094 31.1432 23.8094C31.8092 23.8094 32.3827 23.7293 32.8637 23.5689C33.3447 23.4086 33.7702 23.2298 34.1402 23.0324C34.5226 22.8351 34.8679 22.6563 35.1762 22.4959C35.4969 22.3356 35.8299 22.2554 36.1752 22.2554C36.6316 22.2554 36.9769 22.4219 37.2112 22.7549L38.8762 24.8084C38.2842 25.4868 37.6429 26.0418 36.9522 26.4734C36.2739 26.8928 35.5709 27.2258 34.8432 27.4724C34.1279 27.7068 33.4064 27.8671 32.6787 27.9534C31.9634 28.0521 31.2789 28.1014 30.6252 28.1014C29.2809 28.1014 28.0167 27.8856 26.8327 27.4539C25.6611 27.0099 24.6312 26.3563 23.7432 25.4929C22.8676 24.6296 22.1707 23.5566 21.6527 22.2739C21.1471 20.9913 20.8942 19.4989 20.8942 17.7969C20.8942 16.5143 21.1101 15.2994 21.5417 14.1524C21.9857 13.0054 22.6147 12.0003 23.4287 11.1369C24.2551 10.2736 25.2479 9.58909 26.4072 9.08342C27.5789 8.57775 28.8986 8.32492 30.3662 8.32492C31.6366 8.32492 32.7959 8.52225 33.8442 8.91692C34.9049 9.31159 35.8114 9.88509 36.5637 10.6374C37.3284 11.3898 37.9204 12.3148 38.3397 13.4124C38.7714 14.4978 38.9872 15.7311 38.9872 17.1124C38.9872 17.5441 38.9687 17.8956 38.9317 18.1669C38.8947 18.4383 38.8269 18.6541 38.7282 18.8144C38.6296 18.9748 38.4939 19.0858 38.3212 19.1474C38.1609 19.2091 37.9512 19.2399 37.6922 19.2399H26.6292ZM47.5921 0.110918V27.8054H41.8571V0.110918H47.5921ZM63.4009 15.9099C63.4009 15.4536 63.3392 15.0096 63.2159 14.5779C63.1049 14.1463 62.9137 13.7639 62.6424 13.4309C62.3834 13.0856 62.038 12.8081 61.6064 12.5984C61.1747 12.3888 60.6505 12.2839 60.0339 12.2839C58.9485 12.2839 58.0975 12.5984 57.4809 13.2274C56.8642 13.8441 56.4572 14.7383 56.2599 15.9099H63.4009ZM56.1859 19.2399C56.3709 20.8433 56.858 22.0088 57.6474 22.7364C58.4367 23.4518 59.4542 23.8094 60.6999 23.8094C61.3659 23.8094 61.9394 23.7293 62.4204 23.5689C62.9014 23.4086 63.3269 23.2298 63.6969 23.0324C64.0792 22.8351 64.4245 22.6563 64.7329 22.4959C65.0535 22.3356 65.3865 22.2554 65.7319 22.2554C66.1882 22.2554 66.5335 22.4219 66.7679 22.7549L68.4329 24.8084C67.8409 25.4868 67.1995 26.0418 66.5089 26.4734C65.8305 26.8928 65.1275 27.2258 64.3999 27.4724C63.6845 27.7068 62.963 27.8671 62.2354 27.9534C61.52 28.0521 60.8355 28.1014 60.1819 28.1014C58.8375 28.1014 57.5734 27.8856 56.3894 27.4539C55.2177 27.0099 54.1879 26.3563 53.2999 25.4929C52.4242 24.6296 51.7274 23.5566 51.2094 22.2739C50.7037 20.9913 50.4509 19.4989 50.4509 17.7969C50.4509 16.5143 50.6667 15.2994 51.0984 14.1524C51.5424 13.0054 52.1714 12.0003 52.9854 11.1369C53.8117 10.2736 54.8045 9.58909 55.9639 9.08342C57.1355 8.57775 58.4552 8.32492 59.9229 8.32492C61.1932 8.32492 62.3525 8.52225 63.4009 8.91692C64.4615 9.31159 65.368 9.88509 66.1204 10.6374C66.885 11.3898 67.477 12.3148 67.8964 13.4124C68.328 14.4978 68.5439 15.7311 68.5439 17.1124C68.5439 17.5441 68.5254 17.8956 68.4884 18.1669C68.4514 18.4383 68.3835 18.6541 68.2849 18.8144C68.1862 18.9748 68.0505 19.0858 67.8779 19.1474C67.7175 19.2091 67.5079 19.2399 67.2489 19.2399H56.1859ZM85.5107 13.1719C85.338 13.3816 85.1715 13.5481 85.0112 13.6714C84.8509 13.7948 84.6227 13.8564 84.3267 13.8564C84.043 13.8564 83.784 13.7886 83.5497 13.6529C83.3277 13.5173 83.0749 13.3693 82.7912 13.2089C82.5075 13.0363 82.1745 12.8821 81.7922 12.7464C81.4099 12.6108 80.935 12.5429 80.3677 12.5429C79.6647 12.5429 79.0542 12.6724 78.5362 12.9314C78.0305 13.1904 77.6112 13.5604 77.2782 14.0414C76.9452 14.5224 76.6985 15.1144 76.5382 15.8174C76.3779 16.5081 76.2977 17.2913 76.2977 18.1669C76.2977 20.0046 76.6492 21.4168 77.3522 22.4034C78.0675 23.3901 79.048 23.8834 80.2937 23.8834C80.9597 23.8834 81.4839 23.8033 81.8662 23.6429C82.2609 23.4703 82.5939 23.2853 82.8652 23.0879C83.1365 22.8783 83.3832 22.6871 83.6052 22.5144C83.8395 22.3418 84.1294 22.2554 84.4747 22.2554C84.931 22.2554 85.2764 22.4219 85.5107 22.7549L87.1757 24.8084C86.5837 25.4868 85.9609 26.0418 85.3072 26.4734C84.6535 26.8928 83.9814 27.2258 83.2907 27.4724C82.6124 27.7068 81.9279 27.8671 81.2372 27.9534C80.5465 28.0521 79.8744 28.1014 79.2207 28.1014C78.049 28.1014 76.9267 27.8794 75.8537 27.4354C74.793 26.9914 73.8557 26.3501 73.0417 25.5114C72.24 24.6604 71.5987 23.6183 71.1177 22.3849C70.649 21.1516 70.4147 19.7456 70.4147 18.1669C70.4147 16.7856 70.6182 15.4968 71.0252 14.3004C71.4445 13.0918 72.055 12.0496 72.8567 11.1739C73.6707 10.2859 74.6697 9.58909 75.8537 9.08342C77.05 8.57775 78.4314 8.32492 79.9977 8.32492C81.5024 8.32492 82.822 8.56542 83.9567 9.04642C85.0914 9.52742 86.115 10.2304 87.0277 11.1554L85.5107 13.1719ZM96.2713 28.1014C95.3587 28.1014 94.5508 27.9719 93.8478 27.7129C93.1572 27.4416 92.5713 27.0654 92.0903 26.5844C91.6217 26.0911 91.264 25.4991 91.0173 24.8084C90.7707 24.1178 90.6473 23.3469 90.6473 22.4959V12.5799H89.0193C88.7233 12.5799 88.4705 12.4874 88.2608 12.3024C88.0512 12.1051 87.9463 11.8214 87.9463 11.4514V9.21292L90.9988 8.62092L92.1273 3.94042C92.2753 3.34842 92.6947 3.05242 93.3853 3.05242H96.3823V8.65792H101.137V12.5799H96.3823V22.1074C96.3823 22.5514 96.4872 22.9214 96.6968 23.2174C96.9188 23.5011 97.2333 23.6429 97.6403 23.6429C97.85 23.6429 98.0227 23.6244 98.1583 23.5874C98.3063 23.5381 98.4297 23.4888 98.5283 23.4394C98.6393 23.3778 98.738 23.3284 98.8243 23.2914C98.923 23.2421 99.034 23.2174 99.1573 23.2174C99.33 23.2174 99.4657 23.2606 99.5643 23.3469C99.6753 23.4209 99.7863 23.5443 99.8973 23.7169L101.636 26.4364C100.896 26.9914 100.064 27.4108 99.1388 27.6944C98.2138 27.9658 97.258 28.1014 96.2713 28.1014ZM117.907 22.5884C118.338 23.0571 118.807 23.3901 119.313 23.5874C119.818 23.7848 120.349 23.8834 120.904 23.8834C121.434 23.8834 121.921 23.7786 122.365 23.5689C122.809 23.3593 123.191 23.0263 123.512 22.5699C123.845 22.1013 124.104 21.4969 124.289 20.7569C124.474 20.0169 124.567 19.1166 124.567 18.0559C124.567 17.0446 124.493 16.1936 124.345 15.5029C124.197 14.8123 123.987 14.2573 123.716 13.8379C123.457 13.4063 123.142 13.0979 122.772 12.9129C122.402 12.7279 121.989 12.6354 121.533 12.6354C120.694 12.6354 120.003 12.7896 119.461 13.0979C118.918 13.4063 118.4 13.8564 117.907 14.4484V22.5884ZM117.555 10.9889C118.307 10.1873 119.158 9.53359 120.108 9.02792C121.07 8.50992 122.211 8.25092 123.531 8.25092C124.53 8.25092 125.455 8.47292 126.306 8.91692C127.157 9.36092 127.89 10.0023 128.507 10.8409C129.124 11.6796 129.605 12.7094 129.95 13.9304C130.308 15.1391 130.487 16.5143 130.487 18.0559C130.487 19.4989 130.283 20.8309 129.876 22.0519C129.481 23.2729 128.92 24.3336 128.193 25.2339C127.477 26.1343 126.614 26.8373 125.603 27.3429C124.604 27.8486 123.494 28.1014 122.273 28.1014C121.274 28.1014 120.435 27.9596 119.757 27.6759C119.078 27.3923 118.462 27.0099 117.907 26.5289V33.8919H112.172V8.62092H115.724C116.439 8.62092 116.908 8.94159 117.13 9.58292L117.555 10.9889ZM138.819 11.5809C139.411 10.5449 140.089 9.73092 140.854 9.13892C141.631 8.54692 142.519 8.25092 143.518 8.25092C144.381 8.25092 145.084 8.45442 145.627 8.86142L145.257 13.0794C145.195 13.3508 145.09 13.5358 144.942 13.6344C144.807 13.7331 144.615 13.7824 144.369 13.7824C144.27 13.7824 144.141 13.7763 143.98 13.7639C143.82 13.7516 143.653 13.7393 143.481 13.7269C143.308 13.7023 143.129 13.6838 142.944 13.6714C142.772 13.6468 142.611 13.6344 142.463 13.6344C141.625 13.6344 140.952 13.8564 140.447 14.3004C139.953 14.7444 139.534 15.3611 139.189 16.1504V27.8054H133.454V8.62092H136.858C137.141 8.62092 137.376 8.64559 137.561 8.69492C137.758 8.74425 137.918 8.82442 138.042 8.93542C138.177 9.03408 138.276 9.16975 138.338 9.34242C138.412 9.51509 138.473 9.72475 138.523 9.97142L138.819 11.5809ZM156.099 8.32492C157.555 8.32492 158.881 8.55309 160.077 9.00942C161.273 9.46575 162.297 10.1194 163.148 10.9704C164.011 11.8214 164.677 12.8574 165.146 14.0784C165.627 15.2871 165.867 16.6499 165.867 18.1669C165.867 19.6963 165.627 21.0776 165.146 22.3109C164.677 23.5319 164.011 24.5741 163.148 25.4374C162.297 26.2884 161.273 26.9483 160.077 27.4169C158.881 27.8733 157.555 28.1014 156.099 28.1014C154.632 28.1014 153.294 27.8733 152.085 27.4169C150.889 26.9483 149.853 26.2884 148.977 25.4374C148.114 24.5741 147.441 23.5319 146.96 22.3109C146.492 21.0776 146.257 19.6963 146.257 18.1669C146.257 16.6499 146.492 15.2871 146.96 14.0784C147.441 12.8574 148.114 11.8214 148.977 10.9704C149.853 10.1194 150.889 9.46575 152.085 9.00942C153.294 8.55309 154.632 8.32492 156.099 8.32492ZM156.099 23.8464C157.419 23.8464 158.387 23.3839 159.004 22.4589C159.633 21.5216 159.947 20.1033 159.947 18.2039C159.947 16.3046 159.633 14.8924 159.004 13.9674C158.387 13.0424 157.419 12.5799 156.099 12.5799C154.743 12.5799 153.75 13.0424 153.121 13.9674C152.492 14.8924 152.177 16.3046 152.177 18.2039C152.177 20.1033 152.492 21.5216 153.121 22.4589C153.75 23.3839 154.743 23.8464 156.099 23.8464ZM174.62 8.62092V27.8424C174.62 28.7428 174.503 29.5876 174.268 30.3769C174.046 31.1786 173.67 31.8754 173.14 32.4674C172.622 33.0718 171.931 33.5466 171.068 33.8919C170.217 34.2373 169.156 34.4099 167.886 34.4099C167.417 34.4099 166.986 34.3791 166.591 34.3174C166.184 34.2681 165.765 34.1879 165.333 34.0769L165.518 31.0614C165.543 30.8024 165.629 30.6113 165.777 30.4879C165.925 30.3646 166.221 30.3029 166.665 30.3029C167.109 30.3029 167.473 30.2659 167.756 30.1919C168.04 30.1179 168.262 29.9884 168.422 29.8034C168.595 29.6184 168.712 29.3656 168.774 29.0449C168.848 28.7366 168.885 28.3358 168.885 27.8424V8.62092H174.62ZM175.212 3.36692C175.212 3.82325 175.119 4.25492 174.934 4.66192C174.749 5.05659 174.497 5.40809 174.176 5.71642C173.855 6.01242 173.479 6.25292 173.047 6.43792C172.628 6.61059 172.178 6.69692 171.697 6.69692C171.228 6.69692 170.79 6.61059 170.383 6.43792C169.976 6.25292 169.613 6.01242 169.292 5.71642C168.984 5.40809 168.737 5.05659 168.552 4.66192C168.379 4.25492 168.293 3.82325 168.293 3.36692C168.293 2.89825 168.379 2.46042 168.552 2.05342C168.737 1.64642 168.984 1.28875 169.292 0.980419C169.613 0.672086 169.976 0.431586 170.383 0.258918C170.79 0.0862525 171.228 -8.04663e-05 171.697 -8.04663e-05C172.178 -8.04663e-05 172.628 0.0862525 173.047 0.258918C173.479 0.431586 173.855 0.672086 174.176 0.980419C174.497 1.28875 174.749 1.64642 174.934 2.05342C175.119 2.46042 175.212 2.89825 175.212 3.36692ZM190.552 15.9099C190.552 15.4536 190.491 15.0096 190.367 14.5779C190.256 14.1463 190.065 13.7639 189.794 13.4309C189.535 13.0856 189.189 12.8081 188.758 12.5984C188.326 12.3888 187.802 12.2839 187.185 12.2839C186.1 12.2839 185.249 12.5984 184.632 13.2274C184.016 13.8441 183.609 14.7383 183.411 15.9099H190.552ZM183.337 19.2399C183.522 20.8433 184.009 22.0088 184.799 22.7364C185.588 23.4518 186.606 23.8094 187.851 23.8094C188.517 23.8094 189.091 23.7293 189.572 23.5689C190.053 23.4086 190.478 23.2298 190.848 23.0324C191.231 22.8351 191.576 22.6563 191.884 22.4959C192.205 22.3356 192.538 22.2554 192.883 22.2554C193.34 22.2554 193.685 22.4219 193.919 22.7549L195.584 24.8084C194.992 25.4868 194.351 26.0418 193.66 26.4734C192.982 26.8928 192.279 27.2258 191.551 27.4724C190.836 27.7068 190.114 27.8671 189.387 27.9534C188.671 28.0521 187.987 28.1014 187.333 28.1014C185.989 28.1014 184.725 27.8856 183.541 27.4539C182.369 27.0099 181.339 26.3563 180.451 25.4929C179.576 24.6296 178.879 23.5566 178.361 22.2739C177.855 20.9913 177.602 19.4989 177.602 17.7969C177.602 16.5143 177.818 15.2994 178.25 14.1524C178.694 13.0054 179.323 12.0003 180.137 11.1369C180.963 10.2736 181.956 9.58909 183.115 9.08342C184.287 8.57775 185.607 8.32492 187.074 8.32492C188.345 8.32492 189.504 8.52225 190.552 8.91692C191.613 9.31159 192.519 9.88509 193.272 10.6374C194.036 11.3898 194.628 12.3148 195.048 13.4124C195.479 14.4978 195.695 15.7311 195.695 17.1124C195.695 17.5441 195.677 17.8956 195.64 18.1669C195.603 18.4383 195.535 18.6541 195.436 18.8144C195.338 18.9748 195.202 19.0858 195.029 19.1474C194.869 19.2091 194.659 19.2399 194.4 19.2399H183.337ZM212.662 13.1719C212.489 13.3816 212.323 13.5481 212.163 13.6714C212.002 13.7948 211.774 13.8564 211.478 13.8564C211.194 13.8564 210.935 13.7886 210.701 13.6529C210.479 13.5173 210.226 13.3693 209.943 13.2089C209.659 13.0363 209.326 12.8821 208.944 12.7464C208.561 12.6108 208.086 12.5429 207.519 12.5429C206.816 12.5429 206.206 12.6724 205.688 12.9314C205.182 13.1904 204.763 13.5604 204.43 14.0414C204.097 14.5224 203.85 15.1144 203.69 15.8174C203.529 16.5081 203.449 17.2913 203.449 18.1669C203.449 20.0046 203.801 21.4168 204.504 22.4034C205.219 23.3901 206.199 23.8834 207.445 23.8834C208.111 23.8834 208.635 23.8033 209.018 23.6429C209.412 23.4703 209.745 23.2853 210.017 23.0879C210.288 22.8783 210.535 22.6871 210.757 22.5144C210.991 22.3418 211.281 22.2554 211.626 22.2554C212.082 22.2554 212.428 22.4219 212.662 22.7549L214.327 24.8084C213.735 25.4868 213.112 26.0418 212.459 26.4734C211.805 26.8928 211.133 27.2258 210.442 27.4724C209.764 27.7068 209.079 27.8671 208.389 27.9534C207.698 28.0521 207.026 28.1014 206.372 28.1014C205.2 28.1014 204.078 27.8794 203.005 27.4354C201.944 26.9914 201.007 26.3501 200.193 25.5114C199.391 24.6604 198.75 23.6183 198.269 22.3849C197.8 21.1516 197.566 19.7456 197.566 18.1669C197.566 16.7856 197.77 15.4968 198.177 14.3004C198.596 13.0918 199.206 12.0496 200.008 11.1739C200.822 10.2859 201.821 9.58909 203.005 9.08342C204.201 8.57775 205.583 8.32492 207.149 8.32492C208.654 8.32492 209.973 8.56542 211.108 9.04642C212.243 9.52742 213.266 10.2304 214.179 11.1554L212.662 13.1719ZM223.423 28.1014C222.51 28.1014 221.702 27.9719 220.999 27.7129C220.309 27.4416 219.723 27.0654 219.242 26.5844C218.773 26.0911 218.415 25.4991 218.169 24.8084C217.922 24.1178 217.799 23.3469 217.799 22.4959V12.5799H216.171C215.875 12.5799 215.622 12.4874 215.412 12.3024C215.203 12.1051 215.098 11.8214 215.098 11.4514V9.21292L218.15 8.62092L219.279 3.94042C219.427 3.34842 219.846 3.05242 220.537 3.05242H223.534V8.65792H228.288V12.5799H223.534V22.1074C223.534 22.5514 223.639 22.9214 223.848 23.2174C224.07 23.5011 224.385 23.6429 224.792 23.6429C225.001 23.6429 225.174 23.6244 225.31 23.5874C225.458 23.5381 225.581 23.4888 225.68 23.4394C225.791 23.3778 225.889 23.3284 225.976 23.2914C226.074 23.2421 226.185 23.2174 226.309 23.2174C226.481 23.2174 226.617 23.2606 226.716 23.3469C226.827 23.4209 226.938 23.5443 227.049 23.7169L228.788 26.4364C228.048 26.9914 227.215 27.4108 226.29 27.6944C225.365 27.9658 224.409 28.1014 223.423 28.1014Z" fill="#FF5524"/>
</svg>
