<svg width="173" height="34" viewBox="0 0 173 34" fill="none" xmlns="http://www.w3.org/2000/svg">
<path d="M16.9829 6.32692C16.7979 6.62292 16.6006 6.84492 16.3909 6.99292C16.1936 7.14092 15.9346 7.21492 15.6139 7.21492C15.3303 7.21492 15.0219 7.12859 14.6889 6.95592C14.3683 6.77092 13.9983 6.56742 13.5789 6.34542C13.1719 6.12342 12.7033 5.92609 12.1729 5.75342C11.6426 5.56842 11.0383 5.47592 10.3599 5.47592C9.18827 5.47592 8.3126 5.72875 7.73293 6.23442C7.1656 6.72775 6.88193 7.39992 6.88193 8.25092C6.88193 8.79359 7.0546 9.24375 7.39993 9.60142C7.74527 9.95909 8.19543 10.2674 8.75043 10.5264C9.31777 10.7854 9.9591 11.0259 10.6744 11.2479C11.4021 11.4576 12.1421 11.6981 12.8944 11.9694C13.6468 12.2284 14.3806 12.5368 15.0959 12.8944C15.8236 13.2521 16.4649 13.7084 17.0199 14.2634C17.5873 14.8184 18.0436 15.4968 18.3889 16.2984C18.7343 17.0878 18.9069 18.0436 18.9069 19.1659C18.9069 20.4116 18.6911 21.5771 18.2594 22.6624C17.8278 23.7478 17.1988 24.6974 16.3724 25.5114C15.5584 26.3131 14.5471 26.9483 13.3384 27.4169C12.1421 27.8733 10.7793 28.1014 9.24993 28.1014C8.41127 28.1014 7.5541 28.0151 6.67843 27.8424C5.8151 27.6698 4.97643 27.4293 4.16243 27.1209C3.34843 26.8003 2.58377 26.4241 1.86843 25.9924C1.1531 25.5608 0.530267 25.0798 -6.63903e-05 24.5494L1.84993 21.6264C1.99793 21.4168 2.1891 21.2441 2.42343 21.1084C2.6701 20.9604 2.93527 20.8864 3.21893 20.8864C3.58893 20.8864 3.95893 21.0036 4.32893 21.2379C4.71127 21.4723 5.13677 21.7313 5.60543 22.0149C6.08643 22.2986 6.63527 22.5576 7.25193 22.7919C7.8686 23.0263 8.59627 23.1434 9.43493 23.1434C10.5696 23.1434 11.4514 22.8968 12.0804 22.4034C12.7094 21.8978 13.0239 21.1023 13.0239 20.0169C13.0239 19.3879 12.8513 18.8761 12.5059 18.4814C12.1606 18.0868 11.7043 17.7599 11.1369 17.5009C10.5819 17.2419 9.94677 17.0138 9.23143 16.8164C8.5161 16.6191 7.78227 16.4033 7.02993 16.1689C6.2776 15.9223 5.54377 15.6263 4.82843 15.2809C4.1131 14.9233 3.47177 14.4608 2.90443 13.8934C2.34943 13.3138 1.89927 12.5984 1.55393 11.7474C1.2086 10.8841 1.03593 9.82342 1.03593 8.56542C1.03593 7.55408 1.23943 6.56742 1.64643 5.60542C2.05343 4.64342 2.6516 3.78625 3.44093 3.03392C4.23027 2.28158 5.19843 1.68342 6.34543 1.23942C7.49243 0.783085 8.80593 0.554919 10.2859 0.554919C11.1123 0.554919 11.9139 0.622753 12.6909 0.75842C13.4803 0.881753 14.2264 1.07292 14.9294 1.33192C15.6324 1.57859 16.2861 1.88075 16.8904 2.23842C17.5071 2.58375 18.0559 2.97842 18.5369 3.42242L16.9829 6.32692ZM33.8442 15.9099C33.8442 15.4536 33.7826 15.0096 33.6592 14.5779C33.5482 14.1463 33.3571 13.7639 33.0857 13.4309C32.8267 13.0856 32.4814 12.8081 32.0497 12.5984C31.6181 12.3888 31.0939 12.2839 30.4772 12.2839C29.3919 12.2839 28.5409 12.5984 27.9242 13.2274C27.3076 13.8441 26.9006 14.7383 26.7032 15.9099H33.8442ZM26.6292 19.2399C26.8142 20.8433 27.3014 22.0088 28.0907 22.7364C28.8801 23.4518 29.8976 23.8094 31.1432 23.8094C31.8092 23.8094 32.3827 23.7293 32.8637 23.5689C33.3447 23.4086 33.7702 23.2298 34.1402 23.0324C34.5226 22.8351 34.8679 22.6563 35.1762 22.4959C35.4969 22.3356 35.8299 22.2554 36.1752 22.2554C36.6316 22.2554 36.9769 22.4219 37.2112 22.7549L38.8762 24.8084C38.2842 25.4868 37.6429 26.0418 36.9522 26.4734C36.2739 26.8928 35.5709 27.2258 34.8432 27.4724C34.1279 27.7068 33.4064 27.8671 32.6787 27.9534C31.9634 28.0521 31.2789 28.1014 30.6252 28.1014C29.2809 28.1014 28.0167 27.8856 26.8327 27.4539C25.6611 27.0099 24.6312 26.3563 23.7432 25.4929C22.8676 24.6296 22.1707 23.5566 21.6527 22.2739C21.1471 20.9913 20.8942 19.4989 20.8942 17.7969C20.8942 16.5143 21.1101 15.2994 21.5417 14.1524C21.9857 13.0054 22.6147 12.0003 23.4287 11.1369C24.2551 10.2736 25.2479 9.58909 26.4072 9.08342C27.5789 8.57775 28.8986 8.32492 30.3662 8.32492C31.6366 8.32492 32.7959 8.52225 33.8442 8.91692C34.9049 9.31159 35.8114 9.88509 36.5637 10.6374C37.3284 11.3898 37.9204 12.3148 38.3397 13.4124C38.7714 14.4978 38.9872 15.7311 38.9872 17.1124C38.9872 17.5441 38.9687 17.8956 38.9317 18.1669C38.8947 18.4383 38.8269 18.6541 38.7282 18.8144C38.6296 18.9748 38.4939 19.0858 38.3212 19.1474C38.1609 19.2091 37.9512 19.2399 37.6922 19.2399H26.6292ZM47.5921 0.110918V27.8054H41.8571V0.110918H47.5921ZM63.4009 15.9099C63.4009 15.4536 63.3392 15.0096 63.2159 14.5779C63.1049 14.1463 62.9137 13.7639 62.6424 13.4309C62.3834 13.0856 62.038 12.8081 61.6064 12.5984C61.1747 12.3888 60.6505 12.2839 60.0339 12.2839C58.9485 12.2839 58.0975 12.5984 57.4809 13.2274C56.8642 13.8441 56.4572 14.7383 56.2599 15.9099H63.4009ZM56.1859 19.2399C56.3709 20.8433 56.858 22.0088 57.6474 22.7364C58.4367 23.4518 59.4542 23.8094 60.6999 23.8094C61.3659 23.8094 61.9394 23.7293 62.4204 23.5689C62.9014 23.4086 63.3269 23.2298 63.6969 23.0324C64.0792 22.8351 64.4245 22.6563 64.7329 22.4959C65.0535 22.3356 65.3865 22.2554 65.7319 22.2554C66.1882 22.2554 66.5335 22.4219 66.7679 22.7549L68.4329 24.8084C67.8409 25.4868 67.1995 26.0418 66.5089 26.4734C65.8305 26.8928 65.1275 27.2258 64.3999 27.4724C63.6845 27.7068 62.963 27.8671 62.2354 27.9534C61.52 28.0521 60.8355 28.1014 60.1819 28.1014C58.8375 28.1014 57.5734 27.8856 56.3894 27.4539C55.2177 27.0099 54.1879 26.3563 53.2999 25.4929C52.4242 24.6296 51.7274 23.5566 51.2094 22.2739C50.7037 20.9913 50.4509 19.4989 50.4509 17.7969C50.4509 16.5143 50.6667 15.2994 51.0984 14.1524C51.5424 13.0054 52.1714 12.0003 52.9854 11.1369C53.8117 10.2736 54.8045 9.58909 55.9639 9.08342C57.1355 8.57775 58.4552 8.32492 59.9229 8.32492C61.1932 8.32492 62.3525 8.52225 63.4009 8.91692C64.4615 9.31159 65.368 9.88509 66.1204 10.6374C66.885 11.3898 67.477 12.3148 67.8964 13.4124C68.328 14.4978 68.5439 15.7311 68.5439 17.1124C68.5439 17.5441 68.5254 17.8956 68.4884 18.1669C68.4514 18.4383 68.3835 18.6541 68.2849 18.8144C68.1862 18.9748 68.0505 19.0858 67.8779 19.1474C67.7175 19.2091 67.5079 19.2399 67.2489 19.2399H56.1859ZM85.5107 13.1719C85.338 13.3816 85.1715 13.5481 85.0112 13.6714C84.8509 13.7948 84.6227 13.8564 84.3267 13.8564C84.043 13.8564 83.784 13.7886 83.5497 13.6529C83.3277 13.5173 83.0749 13.3693 82.7912 13.2089C82.5075 13.0363 82.1745 12.8821 81.7922 12.7464C81.4099 12.6108 80.935 12.5429 80.3677 12.5429C79.6647 12.5429 79.0542 12.6724 78.5362 12.9314C78.0305 13.1904 77.6112 13.5604 77.2782 14.0414C76.9452 14.5224 76.6985 15.1144 76.5382 15.8174C76.3779 16.5081 76.2977 17.2913 76.2977 18.1669C76.2977 20.0046 76.6492 21.4168 77.3522 22.4034C78.0675 23.3901 79.048 23.8834 80.2937 23.8834C80.9597 23.8834 81.4839 23.8033 81.8662 23.6429C82.2609 23.4703 82.5939 23.2853 82.8652 23.0879C83.1365 22.8783 83.3832 22.6871 83.6052 22.5144C83.8395 22.3418 84.1294 22.2554 84.4747 22.2554C84.931 22.2554 85.2764 22.4219 85.5107 22.7549L87.1757 24.8084C86.5837 25.4868 85.9609 26.0418 85.3072 26.4734C84.6535 26.8928 83.9814 27.2258 83.2907 27.4724C82.6124 27.7068 81.9279 27.8671 81.2372 27.9534C80.5465 28.0521 79.8744 28.1014 79.2207 28.1014C78.049 28.1014 76.9267 27.8794 75.8537 27.4354C74.793 26.9914 73.8557 26.3501 73.0417 25.5114C72.24 24.6604 71.5987 23.6183 71.1177 22.3849C70.649 21.1516 70.4147 19.7456 70.4147 18.1669C70.4147 16.7856 70.6182 15.4968 71.0252 14.3004C71.4445 13.0918 72.055 12.0496 72.8567 11.1739C73.6707 10.2859 74.6697 9.58909 75.8537 9.08342C77.05 8.57775 78.4314 8.32492 79.9977 8.32492C81.5024 8.32492 82.822 8.56542 83.9567 9.04642C85.0914 9.52742 86.115 10.2304 87.0277 11.1554L85.5107 13.1719ZM96.2713 28.1014C95.3587 28.1014 94.5508 27.9719 93.8478 27.7129C93.1572 27.4416 92.5713 27.0654 92.0903 26.5844C91.6217 26.0911 91.264 25.4991 91.0173 24.8084C90.7707 24.1178 90.6473 23.3469 90.6473 22.4959V12.5799H89.0193C88.7233 12.5799 88.4705 12.4874 88.2608 12.3024C88.0512 12.1051 87.9463 11.8214 87.9463 11.4514V9.21292L90.9988 8.62092L92.1273 3.94042C92.2753 3.34842 92.6947 3.05242 93.3853 3.05242H96.3823V8.65792H101.137V12.5799H96.3823V22.1074C96.3823 22.5514 96.4872 22.9214 96.6968 23.2174C96.9188 23.5011 97.2333 23.6429 97.6403 23.6429C97.85 23.6429 98.0227 23.6244 98.1583 23.5874C98.3063 23.5381 98.4297 23.4888 98.5283 23.4394C98.6393 23.3778 98.738 23.3284 98.8243 23.2914C98.923 23.2421 99.034 23.2174 99.1573 23.2174C99.33 23.2174 99.4657 23.2606 99.5643 23.3469C99.6753 23.4209 99.7863 23.5443 99.8973 23.7169L101.636 26.4364C100.896 26.9914 100.064 27.4108 99.1388 27.6944C98.2138 27.9658 97.258 28.1014 96.2713 28.1014ZM126.269 13.1719C126.096 13.3816 125.929 13.5481 125.769 13.6714C125.609 13.7948 125.381 13.8564 125.085 13.8564C124.801 13.8564 124.542 13.7886 124.308 13.6529C124.086 13.5173 123.833 13.3693 123.549 13.2089C123.265 13.0363 122.932 12.8821 122.55 12.7464C122.168 12.6108 121.693 12.5429 121.126 12.5429C120.423 12.5429 119.812 12.6724 119.294 12.9314C118.788 13.1904 118.369 13.5604 118.036 14.0414C117.703 14.5224 117.456 15.1144 117.296 15.8174C117.136 16.5081 117.056 17.2913 117.056 18.1669C117.056 20.0046 117.407 21.4168 118.11 22.4034C118.825 23.3901 119.806 23.8834 121.052 23.8834C121.718 23.8834 122.242 23.8033 122.624 23.6429C123.019 23.4703 123.352 23.2853 123.623 23.0879C123.894 22.8783 124.141 22.6871 124.363 22.5144C124.597 22.3418 124.887 22.2554 125.233 22.2554C125.689 22.2554 126.034 22.4219 126.269 22.7549L127.934 24.8084C127.342 25.4868 126.719 26.0418 126.065 26.4734C125.411 26.8928 124.739 27.2258 124.049 27.4724C123.37 27.7068 122.686 27.8671 121.995 27.9534C121.304 28.0521 120.632 28.1014 119.979 28.1014C118.807 28.1014 117.685 27.8794 116.612 27.4354C115.551 26.9914 114.614 26.3501 113.8 25.5114C112.998 24.6604 112.357 23.6183 111.876 22.3849C111.407 21.1516 111.173 19.7456 111.173 18.1669C111.173 16.7856 111.376 15.4968 111.783 14.3004C112.202 13.0918 112.813 12.0496 113.615 11.1739C114.429 10.2859 115.428 9.58909 116.612 9.08342C117.808 8.57775 119.189 8.32492 120.756 8.32492C122.26 8.32492 123.58 8.56542 124.715 9.04642C125.849 9.52742 126.873 10.2304 127.786 11.1554L126.269 13.1719ZM136.03 8.62092V27.8054H130.295V8.62092H136.03ZM136.622 3.36692C136.622 3.82325 136.53 4.25492 136.345 4.66192C136.16 5.05659 135.907 5.40809 135.586 5.71642C135.265 6.01242 134.889 6.25292 134.458 6.43792C134.038 6.61059 133.588 6.69692 133.107 6.69692C132.638 6.69692 132.201 6.61059 131.794 6.43792C131.387 6.25292 131.023 6.01242 130.702 5.71642C130.394 5.40809 130.147 5.05659 129.962 4.66192C129.789 4.25492 129.703 3.82325 129.703 3.36692C129.703 2.89825 129.789 2.46042 129.962 2.05342C130.147 1.64642 130.394 1.28875 130.702 0.980419C131.023 0.672086 131.387 0.431586 131.794 0.258918C132.201 0.0862525 132.638 -8.04663e-05 133.107 -8.04663e-05C133.588 -8.04663e-05 134.038 0.0862525 134.458 0.258918C134.889 0.431586 135.265 0.672086 135.586 0.980419C135.907 1.28875 136.16 1.64642 136.345 2.05342C136.53 2.46042 136.622 2.89825 136.622 3.36692ZM146.893 28.1014C145.981 28.1014 145.173 27.9719 144.47 27.7129C143.779 27.4416 143.193 27.0654 142.712 26.5844C142.244 26.0911 141.886 25.4991 141.639 24.8084C141.393 24.1178 141.269 23.3469 141.269 22.4959V12.5799H139.641C139.345 12.5799 139.093 12.4874 138.883 12.3024C138.673 12.1051 138.568 11.8214 138.568 11.4514V9.21292L141.621 8.62092L142.749 3.94042C142.897 3.34842 143.317 3.05242 144.007 3.05242H147.004V8.65792H151.759V12.5799H147.004V22.1074C147.004 22.5514 147.109 22.9214 147.319 23.2174C147.541 23.5011 147.855 23.6429 148.262 23.6429C148.472 23.6429 148.645 23.6244 148.78 23.5874C148.928 23.5381 149.052 23.4888 149.15 23.4394C149.261 23.3778 149.36 23.3284 149.446 23.2914C149.545 23.2421 149.656 23.2174 149.779 23.2174C149.952 23.2174 150.088 23.2606 150.186 23.3469C150.297 23.4209 150.408 23.5443 150.519 23.7169L152.258 26.4364C151.518 26.9914 150.686 27.4108 149.761 27.6944C148.836 27.9658 147.88 28.1014 146.893 28.1014ZM172.453 8.62092L162.204 32.7819C162.031 33.1643 161.821 33.4418 161.575 33.6144C161.328 33.7994 160.933 33.8919 160.391 33.8919H156.099L159.799 26.1219L152.14 8.62092H157.209C157.653 8.62092 157.992 8.71959 158.226 8.91692C158.473 9.11425 158.652 9.34859 158.763 9.61992L161.908 17.8894C162.204 18.6418 162.444 19.4126 162.629 20.2019C162.765 19.8073 162.9 19.4126 163.036 19.0179C163.172 18.6233 163.314 18.2348 163.462 17.8524L166.311 9.61992C166.422 9.33625 166.619 9.10192 166.903 8.91692C167.186 8.71959 167.495 8.62092 167.828 8.62092H172.453Z" fill="#FF5524"/>
</svg>
