<svg width="200" height="28" viewBox="0 0 200 28" fill="none" xmlns="http://www.w3.org/2000/svg">
<path d="M16.9829 6.21608C16.7979 6.51208 16.6006 6.73408 16.3909 6.88208C16.1936 7.03008 15.9346 7.10408 15.6139 7.10408C15.3303 7.10408 15.0219 7.01775 14.6889 6.84508C14.3683 6.66008 13.9983 6.45658 13.5789 6.23458C13.1719 6.01258 12.7033 5.81525 12.1729 5.64258C11.6426 5.45758 11.0383 5.36508 10.3599 5.36508C9.18827 5.36508 8.3126 5.61791 7.73293 6.12358C7.1656 6.61691 6.88193 7.28908 6.88193 8.14008C6.88193 8.68275 7.0546 9.13291 7.39993 9.49058C7.74527 9.84825 8.19543 10.1566 8.75043 10.4156C9.31777 10.6746 9.9591 10.9151 10.6744 11.1371C11.4021 11.3467 12.1421 11.5872 12.8944 11.8586C13.6468 12.1176 14.3806 12.4259 15.0959 12.7836C15.8236 13.1412 16.4649 13.5976 17.0199 14.1526C17.5873 14.7076 18.0436 15.3859 18.3889 16.1876C18.7343 16.9769 18.9069 17.9327 18.9069 19.0551C18.9069 20.3007 18.6911 21.4662 18.2594 22.5516C17.8278 23.6369 17.1988 24.5866 16.3724 25.4006C15.5584 26.2022 14.5471 26.8374 13.3384 27.3061C12.1421 27.7624 10.7793 27.9906 9.24993 27.9906C8.41127 27.9906 7.5541 27.9042 6.67843 27.7316C5.8151 27.5589 4.97643 27.3184 4.16243 27.0101C3.34843 26.6894 2.58377 26.3132 1.86843 25.8816C1.1531 25.4499 0.530267 24.9689 -6.63903e-05 24.4386L1.84993 21.5156C1.99793 21.3059 2.1891 21.1332 2.42343 20.9976C2.6701 20.8496 2.93527 20.7756 3.21893 20.7756C3.58893 20.7756 3.95893 20.8927 4.32893 21.1271C4.71127 21.3614 5.13677 21.6204 5.60543 21.9041C6.08643 22.1877 6.63527 22.4467 7.25193 22.6811C7.8686 22.9154 8.59627 23.0326 9.43493 23.0326C10.5696 23.0326 11.4514 22.7859 12.0804 22.2926C12.7094 21.7869 13.0239 20.9914 13.0239 19.9061C13.0239 19.2771 12.8513 18.7652 12.5059 18.3706C12.1606 17.9759 11.7043 17.6491 11.1369 17.3901C10.5819 17.1311 9.94677 16.9029 9.23143 16.7056C8.5161 16.5082 7.78227 16.2924 7.02993 16.0581C6.2776 15.8114 5.54377 15.5154 4.82843 15.1701C4.1131 14.8124 3.47177 14.3499 2.90443 13.7826C2.34943 13.2029 1.89927 12.4876 1.55393 11.6366C1.2086 10.7732 1.03593 9.71258 1.03593 8.45458C1.03593 7.44325 1.23943 6.45658 1.64643 5.49458C2.05343 4.53258 2.6516 3.67541 3.44093 2.92308C4.23027 2.17074 5.19843 1.57258 6.34543 1.12858C7.49243 0.672245 8.80593 0.444079 10.2859 0.444079C11.1123 0.444079 11.9139 0.511913 12.6909 0.64758C13.4803 0.770913 14.2264 0.962079 14.9294 1.22108C15.6324 1.46775 16.2861 1.76991 16.8904 2.12758C17.5071 2.47291 18.0559 2.86758 18.5369 3.31158L16.9829 6.21608ZM33.8442 15.7991C33.8442 15.3427 33.7826 14.8987 33.6592 14.4671C33.5482 14.0354 33.3571 13.6531 33.0857 13.3201C32.8267 12.9747 32.4814 12.6972 32.0497 12.4876C31.6181 12.2779 31.0939 12.1731 30.4772 12.1731C29.3919 12.1731 28.5409 12.4876 27.9242 13.1166C27.3076 13.7332 26.9006 14.6274 26.7032 15.7991H33.8442ZM26.6292 19.1291C26.8142 20.7324 27.3014 21.8979 28.0907 22.6256C28.8801 23.3409 29.8976 23.6986 31.1432 23.6986C31.8092 23.6986 32.3827 23.6184 32.8637 23.4581C33.3447 23.2977 33.7702 23.1189 34.1402 22.9216C34.5226 22.7242 34.8679 22.5454 35.1762 22.3851C35.4969 22.2247 35.8299 22.1446 36.1752 22.1446C36.6316 22.1446 36.9769 22.3111 37.2112 22.6441L38.8762 24.6976C38.2842 25.3759 37.6429 25.9309 36.9522 26.3626C36.2739 26.7819 35.5709 27.1149 34.8432 27.3616C34.1279 27.5959 33.4064 27.7562 32.6787 27.8426C31.9634 27.9412 31.2789 27.9906 30.6252 27.9906C29.2809 27.9906 28.0167 27.7747 26.8327 27.3431C25.6611 26.8991 24.6312 26.2454 23.7432 25.3821C22.8676 24.5187 22.1707 23.4457 21.6527 22.1631C21.1471 20.8804 20.8942 19.3881 20.8942 17.6861C20.8942 16.4034 21.1101 15.1886 21.5417 14.0416C21.9857 12.8946 22.6147 11.8894 23.4287 11.0261C24.2551 10.1627 25.2479 9.47825 26.4072 8.97258C27.5789 8.46691 28.8986 8.21408 30.3662 8.21408C31.6366 8.21408 32.7959 8.41141 33.8442 8.80608C34.9049 9.20075 35.8114 9.77425 36.5637 10.5266C37.3284 11.2789 37.9204 12.2039 38.3397 13.3016C38.7714 14.3869 38.9872 15.6202 38.9872 17.0016C38.9872 17.4332 38.9687 17.7847 38.9317 18.0561C38.8947 18.3274 38.8269 18.5432 38.7282 18.7036C38.6296 18.8639 38.4939 18.9749 38.3212 19.0366C38.1609 19.0982 37.9512 19.1291 37.6922 19.1291H26.6292ZM47.5921 7.82609e-05V27.6946H41.8571V7.82609e-05H47.5921ZM63.4009 15.7991C63.4009 15.3427 63.3392 14.8987 63.2159 14.4671C63.1049 14.0354 62.9137 13.6531 62.6424 13.3201C62.3834 12.9747 62.038 12.6972 61.6064 12.4876C61.1747 12.2779 60.6505 12.1731 60.0339 12.1731C58.9485 12.1731 58.0975 12.4876 57.4809 13.1166C56.8642 13.7332 56.4572 14.6274 56.2599 15.7991H63.4009ZM56.1859 19.1291C56.3709 20.7324 56.858 21.8979 57.6474 22.6256C58.4367 23.3409 59.4542 23.6986 60.6999 23.6986C61.3659 23.6986 61.9394 23.6184 62.4204 23.4581C62.9014 23.2977 63.3269 23.1189 63.6969 22.9216C64.0792 22.7242 64.4245 22.5454 64.7329 22.3851C65.0535 22.2247 65.3865 22.1446 65.7319 22.1446C66.1882 22.1446 66.5335 22.3111 66.7679 22.6441L68.4329 24.6976C67.8409 25.3759 67.1995 25.9309 66.5089 26.3626C65.8305 26.7819 65.1275 27.1149 64.3999 27.3616C63.6845 27.5959 62.963 27.7562 62.2354 27.8426C61.52 27.9412 60.8355 27.9906 60.1819 27.9906C58.8375 27.9906 57.5734 27.7747 56.3894 27.3431C55.2177 26.8991 54.1879 26.2454 53.2999 25.3821C52.4242 24.5187 51.7274 23.4457 51.2094 22.1631C50.7037 20.8804 50.4509 19.3881 50.4509 17.6861C50.4509 16.4034 50.6667 15.1886 51.0984 14.0416C51.5424 12.8946 52.1714 11.8894 52.9854 11.0261C53.8117 10.1627 54.8045 9.47825 55.9639 8.97258C57.1355 8.46691 58.4552 8.21408 59.9229 8.21408C61.1932 8.21408 62.3525 8.41141 63.4009 8.80608C64.4615 9.20075 65.368 9.77425 66.1204 10.5266C66.885 11.2789 67.477 12.2039 67.8964 13.3016C68.328 14.3869 68.5439 15.6202 68.5439 17.0016C68.5439 17.4332 68.5254 17.7847 68.4884 18.0561C68.4514 18.3274 68.3835 18.5432 68.2849 18.7036C68.1862 18.8639 68.0505 18.9749 67.8779 19.0366C67.7175 19.0982 67.5079 19.1291 67.2489 19.1291H56.1859ZM85.5107 13.0611C85.338 13.2707 85.1715 13.4372 85.0112 13.5606C84.8509 13.6839 84.6227 13.7456 84.3267 13.7456C84.043 13.7456 83.784 13.6777 83.5497 13.5421C83.3277 13.4064 83.0749 13.2584 82.7912 13.0981C82.5075 12.9254 82.1745 12.7712 81.7922 12.6356C81.4099 12.4999 80.935 12.4321 80.3677 12.4321C79.6647 12.4321 79.0542 12.5616 78.5362 12.8206C78.0305 13.0796 77.6112 13.4496 77.2782 13.9306C76.9452 14.4116 76.6985 15.0036 76.5382 15.7066C76.3779 16.3972 76.2977 17.1804 76.2977 18.0561C76.2977 19.8937 76.6492 21.3059 77.3522 22.2926C78.0675 23.2792 79.048 23.7726 80.2937 23.7726C80.9597 23.7726 81.4839 23.6924 81.8662 23.5321C82.2609 23.3594 82.5939 23.1744 82.8652 22.9771C83.1365 22.7674 83.3832 22.5762 83.6052 22.4036C83.8395 22.2309 84.1294 22.1446 84.4747 22.1446C84.931 22.1446 85.2764 22.3111 85.5107 22.6441L87.1757 24.6976C86.5837 25.3759 85.9609 25.9309 85.3072 26.3626C84.6535 26.7819 83.9814 27.1149 83.2907 27.3616C82.6124 27.5959 81.9279 27.7562 81.2372 27.8426C80.5465 27.9412 79.8744 27.9906 79.2207 27.9906C78.049 27.9906 76.9267 27.7686 75.8537 27.3246C74.793 26.8806 73.8557 26.2392 73.0417 25.4006C72.24 24.5496 71.5987 23.5074 71.1177 22.2741C70.649 21.0407 70.4147 19.6347 70.4147 18.0561C70.4147 16.6747 70.6182 15.3859 71.0252 14.1896C71.4445 12.9809 72.055 11.9387 72.8567 11.0631C73.6707 10.1751 74.6697 9.47825 75.8537 8.97258C77.05 8.46691 78.4314 8.21408 79.9977 8.21408C81.5024 8.21408 82.822 8.45458 83.9567 8.93558C85.0914 9.41658 86.115 10.1196 87.0277 11.0446L85.5107 13.0611ZM96.2713 27.9906C95.3587 27.9906 94.5508 27.8611 93.8478 27.6021C93.1572 27.3307 92.5713 26.9546 92.0903 26.4736C91.6217 25.9802 91.264 25.3882 91.0173 24.6976C90.7707 24.0069 90.6473 23.2361 90.6473 22.3851V12.4691H89.0193C88.7233 12.4691 88.4705 12.3766 88.2608 12.1916C88.0512 11.9942 87.9463 11.7106 87.9463 11.3406V9.10208L90.9988 8.51008L92.1273 3.82958C92.2753 3.23758 92.6947 2.94158 93.3853 2.94158H96.3823V8.54708H101.137V12.4691H96.3823V21.9966C96.3823 22.4406 96.4872 22.8106 96.6968 23.1066C96.9188 23.3902 97.2333 23.5321 97.6403 23.5321C97.85 23.5321 98.0227 23.5136 98.1583 23.4766C98.3063 23.4272 98.4297 23.3779 98.5283 23.3286C98.6393 23.2669 98.738 23.2176 98.8243 23.1806C98.923 23.1312 99.034 23.1066 99.1573 23.1066C99.33 23.1066 99.4657 23.1497 99.5643 23.2361C99.6753 23.3101 99.7863 23.4334 99.8973 23.6061L101.636 26.3256C100.896 26.8806 100.064 27.2999 99.1388 27.5836C98.2138 27.8549 97.258 27.9906 96.2713 27.9906ZM123.808 13.6531C123.376 13.1721 122.908 12.8391 122.402 12.6541C121.896 12.4567 121.366 12.3581 120.811 12.3581C120.281 12.3581 119.794 12.4629 119.35 12.6726C118.906 12.8822 118.517 13.2214 118.184 13.6901C117.863 14.1464 117.611 14.7446 117.426 15.4846C117.241 16.2246 117.148 17.1187 117.148 18.1671C117.148 19.1784 117.222 20.0294 117.37 20.7201C117.518 21.4107 117.722 21.9719 117.981 22.4036C118.252 22.8229 118.573 23.1251 118.943 23.3101C119.313 23.4951 119.726 23.5876 120.182 23.5876C120.601 23.5876 120.978 23.5506 121.311 23.4766C121.656 23.3902 121.97 23.2731 122.254 23.1251C122.538 22.9771 122.803 22.7921 123.05 22.5701C123.309 22.3357 123.561 22.0706 123.808 21.7746V13.6531ZM129.543 7.82609e-05V27.6946H125.991C125.276 27.6946 124.807 27.3739 124.585 26.7326L124.141 25.2711C123.759 25.6781 123.358 26.0481 122.939 26.3811C122.519 26.7141 122.063 27.0039 121.57 27.2506C121.089 27.4849 120.564 27.6637 119.997 27.7871C119.442 27.9227 118.838 27.9906 118.184 27.9906C117.185 27.9906 116.26 27.7686 115.409 27.3246C114.558 26.8806 113.824 26.2392 113.208 25.4006C112.591 24.5619 112.104 23.5382 111.746 22.3296C111.401 21.1086 111.228 19.7211 111.228 18.1671C111.228 16.7364 111.425 15.4106 111.82 14.1896C112.215 12.9562 112.77 11.8956 113.485 11.0076C114.213 10.1072 115.082 9.40425 116.094 8.89858C117.105 8.39291 118.221 8.14008 119.442 8.14008C120.441 8.14008 121.28 8.28191 121.958 8.56558C122.636 8.84925 123.253 9.23158 123.808 9.71258V7.82609e-05H129.543ZM143.315 19.8876C142.168 19.9369 141.225 20.0356 140.485 20.1836C139.745 20.3316 139.159 20.5166 138.727 20.7386C138.295 20.9606 137.993 21.2134 137.821 21.4971C137.66 21.7807 137.58 22.0891 137.58 22.4221C137.58 23.0757 137.759 23.5382 138.117 23.8096C138.474 24.0686 138.998 24.1981 139.689 24.1981C140.429 24.1981 141.077 24.0686 141.632 23.8096C142.187 23.5506 142.748 23.1312 143.315 22.5516V19.8876ZM132.992 11.1741C134.151 10.1504 135.434 9.39191 136.84 8.89858C138.258 8.39291 139.775 8.14008 141.391 8.14008C142.55 8.14008 143.593 8.33125 144.518 8.71358C145.455 9.08358 146.244 9.60775 146.886 10.2861C147.539 10.9521 148.039 11.7476 148.384 12.6726C148.729 13.5976 148.902 14.6089 148.902 15.7066V27.6946H146.275C145.732 27.6946 145.319 27.6206 145.036 27.4726C144.764 27.3246 144.536 27.0162 144.351 26.5476L143.944 25.4931C143.463 25.9001 143.001 26.2577 142.557 26.5661C142.113 26.8744 141.65 27.1396 141.169 27.3616C140.7 27.5712 140.195 27.7254 139.652 27.8241C139.122 27.9351 138.53 27.9906 137.876 27.9906C137 27.9906 136.205 27.8796 135.49 27.6576C134.774 27.4232 134.164 27.0841 133.658 26.6401C133.165 26.1961 132.782 25.6472 132.511 24.9936C132.24 24.3276 132.104 23.5629 132.104 22.6996C132.104 22.0089 132.277 21.3121 132.622 20.6091C132.967 19.8937 133.566 19.2462 134.417 18.6666C135.268 18.0746 136.415 17.5812 137.858 17.1866C139.301 16.7919 141.12 16.5699 143.315 16.5206V15.7066C143.315 14.5842 143.081 13.7764 142.612 13.2831C142.156 12.7774 141.502 12.5246 140.651 12.5246C139.973 12.5246 139.418 12.5986 138.986 12.7466C138.554 12.8946 138.166 13.0611 137.821 13.2461C137.488 13.4311 137.161 13.5976 136.84 13.7456C136.519 13.8936 136.137 13.9676 135.693 13.9676C135.298 13.9676 134.965 13.8689 134.694 13.6716C134.423 13.4742 134.201 13.2399 134.028 12.9686L132.992 11.1741ZM159.142 27.9906C158.23 27.9906 157.422 27.8611 156.719 27.6021C156.028 27.3307 155.442 26.9546 154.961 26.4736C154.493 25.9802 154.135 25.3882 153.888 24.6976C153.642 24.0069 153.518 23.2361 153.518 22.3851V12.4691H151.89C151.594 12.4691 151.342 12.3766 151.132 12.1916C150.922 11.9942 150.817 11.7106 150.817 11.3406V9.10208L153.87 8.51008L154.998 3.82958C155.146 3.23758 155.566 2.94158 156.256 2.94158H159.253V8.54708H164.008V12.4691H159.253V21.9966C159.253 22.4406 159.358 22.8106 159.568 23.1066C159.79 23.3902 160.104 23.5321 160.511 23.5321C160.721 23.5321 160.894 23.5136 161.029 23.4766C161.177 23.4272 161.301 23.3779 161.399 23.3286C161.51 23.2669 161.609 23.2176 161.695 23.1806C161.794 23.1312 161.905 23.1066 162.028 23.1066C162.201 23.1066 162.337 23.1497 162.435 23.2361C162.546 23.3101 162.657 23.4334 162.768 23.6061L164.507 26.3256C163.767 26.8806 162.935 27.2999 162.01 27.5836C161.085 27.8549 160.129 27.9906 159.142 27.9906ZM178.231 15.7991C178.231 15.3427 178.169 14.8987 178.046 14.4671C177.935 14.0354 177.744 13.6531 177.472 13.3201C177.213 12.9747 176.868 12.6972 176.436 12.4876C176.005 12.2779 175.481 12.1731 174.864 12.1731C173.779 12.1731 172.928 12.4876 172.311 13.1166C171.694 13.7332 171.287 14.6274 171.09 15.7991H178.231ZM171.016 19.1291C171.201 20.7324 171.688 21.8979 172.477 22.6256C173.267 23.3409 174.284 23.6986 175.53 23.6986C176.196 23.6986 176.769 23.6184 177.25 23.4581C177.731 23.2977 178.157 23.1189 178.527 22.9216C178.909 22.7242 179.255 22.5454 179.563 22.3851C179.884 22.2247 180.217 22.1446 180.562 22.1446C181.018 22.1446 181.364 22.3111 181.598 22.6441L183.263 24.6976C182.671 25.3759 182.03 25.9309 181.339 26.3626C180.661 26.7819 179.958 27.1149 179.23 27.3616C178.515 27.5959 177.793 27.7562 177.065 27.8426C176.35 27.9412 175.666 27.9906 175.012 27.9906C173.668 27.9906 172.403 27.7747 171.219 27.3431C170.048 26.8991 169.018 26.2454 168.13 25.3821C167.254 24.5187 166.557 23.4457 166.039 22.1631C165.534 20.8804 165.281 19.3881 165.281 17.6861C165.281 16.4034 165.497 15.1886 165.928 14.0416C166.372 12.8946 167.001 11.8894 167.815 11.0261C168.642 10.1627 169.635 9.47825 170.794 8.97258C171.966 8.46691 173.285 8.21408 174.753 8.21408C176.023 8.21408 177.183 8.41141 178.231 8.80608C179.292 9.20075 180.198 9.77425 180.95 10.5266C181.715 11.2789 182.307 12.2039 182.726 13.3016C183.158 14.3869 183.374 15.6202 183.374 17.0016C183.374 17.4332 183.355 17.7847 183.318 18.0561C183.281 18.3274 183.214 18.5432 183.115 18.7036C183.016 18.8639 182.881 18.9749 182.708 19.0366C182.548 19.0982 182.338 19.1291 182.079 19.1291H171.016ZM198.435 12.7096C198.287 12.9439 198.127 13.1104 197.954 13.2091C197.794 13.3077 197.584 13.3571 197.325 13.3571C197.054 13.3571 196.783 13.3016 196.511 13.1906C196.24 13.0672 195.944 12.9377 195.623 12.8021C195.315 12.6664 194.963 12.5431 194.569 12.4321C194.174 12.3087 193.724 12.2471 193.218 12.2471C192.491 12.2471 191.929 12.3889 191.535 12.6726C191.152 12.9439 190.961 13.3262 190.961 13.8196C190.961 14.1772 191.085 14.4732 191.331 14.7076C191.59 14.9419 191.929 15.1516 192.349 15.3366C192.768 15.5092 193.243 15.6757 193.773 15.8361C194.304 15.9964 194.846 16.1752 195.401 16.3726C195.956 16.5699 196.499 16.8042 197.029 17.0756C197.56 17.3346 198.034 17.6614 198.454 18.0561C198.873 18.4384 199.206 18.9071 199.453 19.4621C199.712 20.0171 199.841 20.6831 199.841 21.4601C199.841 22.4097 199.669 23.2854 199.323 24.0871C198.978 24.8887 198.46 25.5794 197.769 26.1591C197.091 26.7387 196.246 27.1889 195.235 27.5096C194.236 27.8302 193.083 27.9906 191.775 27.9906C191.122 27.9906 190.468 27.9289 189.814 27.8056C189.161 27.6822 188.525 27.5157 187.909 27.3061C187.304 27.0964 186.743 26.8497 186.225 26.5661C185.707 26.2701 185.263 25.9556 184.893 25.6226L186.225 23.5136C186.373 23.2669 186.558 23.0757 186.78 22.9401C187.015 22.7921 187.311 22.7181 187.668 22.7181C188.001 22.7181 188.297 22.7921 188.556 22.9401C188.828 23.0881 189.117 23.2484 189.426 23.4211C189.734 23.5937 190.092 23.7541 190.499 23.9021C190.918 24.0501 191.442 24.1241 192.071 24.1241C192.515 24.1241 192.891 24.0809 193.2 23.9946C193.508 23.8959 193.755 23.7664 193.94 23.6061C194.125 23.4457 194.26 23.2669 194.347 23.0696C194.433 22.8722 194.476 22.6687 194.476 22.4591C194.476 22.0767 194.347 21.7622 194.088 21.5156C193.829 21.2689 193.49 21.0592 193.07 20.8866C192.651 20.7016 192.17 20.5351 191.627 20.3871C191.097 20.2267 190.554 20.0479 189.999 19.8506C189.444 19.6532 188.895 19.4189 188.353 19.1476C187.822 18.8639 187.348 18.5124 186.928 18.0931C186.509 17.6614 186.17 17.1372 185.911 16.5206C185.652 15.9039 185.522 15.1577 185.522 14.2821C185.522 13.4681 185.676 12.6972 185.985 11.9696C186.305 11.2296 186.78 10.5821 187.409 10.0271C188.038 9.47208 188.828 9.03425 189.777 8.71358C190.727 8.38058 191.837 8.21408 193.107 8.21408C193.798 8.21408 194.464 8.27574 195.105 8.39908C195.759 8.52241 196.369 8.69508 196.937 8.91708C197.504 9.13908 198.022 9.40425 198.491 9.71258C198.959 10.0086 199.373 10.3354 199.73 10.6931L198.435 12.7096Z" fill="#FF5524"/>
</svg>
