<svg width="68" height="14" viewBox="0 0 68 14" fill="none" xmlns="http://www.w3.org/2000/svg">
<path d="M9.53988 -9.89437e-06V10.9275H8.21988C8.02488 10.9275 7.85988 10.8975 7.72488 10.8375C7.59488 10.7725 7.46488 10.6625 7.33488 10.5075L2.18238 3.98999C2.20238 4.18499 2.21488 4.37499 2.21988 4.55999C2.22988 4.73999 2.23488 4.90999 2.23488 5.06999V10.9275H-0.000117168V-9.89437e-06H1.33488C1.44488 -9.89437e-06 1.53738 0.00499004 1.61238 0.0149899C1.68738 0.0249898 1.75488 0.0449898 1.81488 0.07499C1.87488 0.09999 1.93238 0.13749 1.98738 0.18749C2.04238 0.23749 2.10488 0.30499 2.17488 0.38999L7.37238 6.95249C7.34738 6.74249 7.32988 6.53999 7.31988 6.34499C7.30988 6.14499 7.30488 5.95749 7.30488 5.78249V-9.89437e-06H9.53988ZM15.9932 6.10499C15.9932 5.91999 15.9682 5.73999 15.9182 5.56499C15.8732 5.38999 15.7957 5.23499 15.6857 5.09999C15.5807 4.95999 15.4407 4.84749 15.2657 4.76249C15.0907 4.67749 14.8782 4.63499 14.6282 4.63499C14.1882 4.63499 13.8432 4.76249 13.5932 5.01749C13.3432 5.26749 13.1782 5.62999 13.0982 6.10499H15.9932ZM13.0682 7.45499C13.1432 8.10499 13.3407 8.57749 13.6607 8.87249C13.9807 9.16249 14.3932 9.30749 14.8982 9.30749C15.1682 9.30749 15.4007 9.27499 15.5957 9.20999C15.7907 9.14499 15.9632 9.07249 16.1132 8.99249C16.2682 8.91249 16.4082 8.83999 16.5332 8.77499C16.6632 8.70999 16.7982 8.67749 16.9382 8.67749C17.1232 8.67749 17.2632 8.74499 17.3582 8.87999L18.0332 9.71249C17.7932 9.98749 17.5332 10.2125 17.2532 10.3875C16.9782 10.5575 16.6932 10.6925 16.3982 10.7925C16.1082 10.8875 15.8157 10.9525 15.5207 10.9875C15.2307 11.0275 14.9532 11.0475 14.6882 11.0475C14.1432 11.0475 13.6307 10.96 13.1507 10.785C12.6757 10.605 12.2582 10.34 11.8982 9.98999C11.5432 9.63999 11.2607 9.20499 11.0507 8.68499C10.8457 8.16499 10.7432 7.55999 10.7432 6.86999C10.7432 6.34999 10.8307 5.85749 11.0057 5.39249C11.1857 4.92749 11.4407 4.51999 11.7707 4.16999C12.1057 3.81999 12.5082 3.54249 12.9782 3.33749C13.4532 3.13249 13.9882 3.02999 14.5832 3.02999C15.0982 3.02999 15.5682 3.10999 15.9932 3.26999C16.4232 3.42999 16.7907 3.66249 17.0957 3.96749C17.4057 4.27249 17.6457 4.64749 17.8157 5.09249C17.9907 5.53249 18.0782 6.03249 18.0782 6.59249C18.0782 6.76749 18.0707 6.90999 18.0557 7.01999C18.0407 7.12999 18.0132 7.21749 17.9732 7.28249C17.9332 7.34749 17.8782 7.39249 17.8082 7.41749C17.7432 7.44249 17.6582 7.45499 17.5532 7.45499H13.0682ZM26.5498 10.9275H24.3148C24.1498 10.9275 24.0148 10.8875 23.9098 10.8075C23.8098 10.7275 23.7298 10.6325 23.6698 10.5225L22.2823 8.13749C22.2573 8.22249 22.2273 8.30249 22.1923 8.37749C22.1573 8.45249 22.1198 8.52249 22.0798 8.58749L20.9398 10.5225C20.8698 10.6225 20.7873 10.715 20.6923 10.8C20.5973 10.885 20.4748 10.9275 20.3248 10.9275H18.2548L20.8648 6.90749L18.3598 3.14999H20.5948C20.7598 3.14999 20.8798 3.17249 20.9548 3.21749C21.0348 3.25749 21.1048 3.32749 21.1648 3.42749L22.5523 5.72999C22.5823 5.63999 22.6198 5.55249 22.6648 5.46749C22.7098 5.37749 22.7598 5.28749 22.8148 5.19749L23.8048 3.46499C23.8748 3.35499 23.9473 3.27499 24.0223 3.22499C24.1023 3.17499 24.1998 3.14999 24.3148 3.14999H26.4448L23.9398 6.80249L26.5498 10.9275ZM30.0514 11.0475C29.6814 11.0475 29.3539 10.995 29.0689 10.89C28.7889 10.78 28.5514 10.6275 28.3564 10.4325C28.1664 10.2325 28.0214 9.99249 27.9214 9.71249C27.8214 9.43249 27.7714 9.11999 27.7714 8.77499V4.75499H27.1114C26.9914 4.75499 26.8889 4.71749 26.8039 4.64249C26.7189 4.56249 26.6764 4.44749 26.6764 4.29749V3.38999L27.9139 3.14999L28.3714 1.25249C28.4314 1.01249 28.6014 0.89249 28.8814 0.89249H30.0964V3.16499H32.0239V4.75499H30.0964V8.61749C30.0964 8.79749 30.1389 8.94749 30.2239 9.06749C30.3139 9.18249 30.4414 9.23999 30.6064 9.23999C30.6914 9.23999 30.7614 9.23249 30.8164 9.21749C30.8764 9.19749 30.9264 9.17749 30.9664 9.15749C31.0114 9.13249 31.0514 9.11249 31.0864 9.09749C31.1264 9.07749 31.1714 9.06749 31.2214 9.06749C31.2914 9.06749 31.3464 9.08499 31.3864 9.11999C31.4314 9.14999 31.4764 9.19999 31.5214 9.26999L32.2264 10.3725C31.9264 10.5975 31.5889 10.7675 31.2139 10.8825C30.8389 10.9925 30.4514 11.0475 30.0514 11.0475ZM38.8225 8.81249C38.9975 9.00249 39.1875 9.13749 39.3925 9.21749C39.5975 9.29749 39.8125 9.33749 40.0375 9.33749C40.2525 9.33749 40.45 9.29499 40.63 9.20999C40.81 9.12499 40.965 8.98999 41.095 8.80499C41.23 8.61499 41.335 8.36999 41.41 8.06999C41.485 7.76999 41.5225 7.40499 41.5225 6.97499C41.5225 6.56499 41.4925 6.21999 41.4325 5.93999C41.3725 5.65999 41.2875 5.43499 41.1775 5.26499C41.0725 5.08999 40.945 4.96499 40.795 4.88999C40.645 4.81499 40.4775 4.77749 40.2925 4.77749C39.9525 4.77749 39.6725 4.83999 39.4525 4.96499C39.2325 5.08999 39.0225 5.27249 38.8225 5.51249V8.81249ZM38.68 4.10999C38.985 3.78499 39.33 3.51999 39.715 3.31499C40.105 3.10499 40.5675 2.99999 41.1025 2.99999C41.5075 2.99999 41.8825 3.08999 42.2275 3.26999C42.5725 3.44999 42.87 3.70999 43.12 4.04999C43.37 4.38999 43.565 4.80749 43.705 5.30249C43.85 5.79249 43.9225 6.34999 43.9225 6.97499C43.9225 7.55999 43.84 8.09999 43.675 8.59499C43.515 9.08999 43.2875 9.51999 42.9925 9.88499C42.7025 10.25 42.3525 10.535 41.9425 10.74C41.5375 10.945 41.0875 11.0475 40.5925 11.0475C40.1875 11.0475 39.8475 10.99 39.5725 10.875C39.2975 10.76 39.0475 10.605 38.8225 10.41V13.395H36.4975V3.14999H37.9375C38.2275 3.14999 38.4175 3.27999 38.5075 3.53999L38.68 4.10999ZM49.1379 7.76249C48.6729 7.78249 48.2904 7.82249 47.9904 7.88249C47.6904 7.94249 47.4529 8.01749 47.2779 8.10749C47.1029 8.19749 46.9804 8.29999 46.9104 8.41499C46.8454 8.52999 46.8129 8.65499 46.8129 8.78999C46.8129 9.05499 46.8854 9.24249 47.0304 9.35249C47.1754 9.45749 47.3879 9.50999 47.6679 9.50999C47.9679 9.50999 48.2304 9.45749 48.4554 9.35249C48.6804 9.24749 48.9079 9.07749 49.1379 8.84249V7.76249ZM44.9529 4.22999C45.4229 3.81499 45.9429 3.50749 46.5129 3.30749C47.0879 3.10249 47.7029 2.99999 48.3579 2.99999C48.8279 2.99999 49.2504 3.07749 49.6254 3.23249C50.0054 3.38249 50.3254 3.59499 50.5854 3.86999C50.8504 4.13999 51.0529 4.46249 51.1929 4.83749C51.3329 5.21249 51.4029 5.62249 51.4029 6.06749V10.9275H50.3379C50.1179 10.9275 49.9504 10.8975 49.8354 10.8375C49.7254 10.7775 49.6329 10.6525 49.5579 10.4625L49.3929 10.035C49.1979 10.2 49.0104 10.345 48.8304 10.47C48.6504 10.595 48.4629 10.7025 48.2679 10.7925C48.0779 10.8775 47.8729 10.94 47.6529 10.98C47.4379 11.025 47.1979 11.0475 46.9329 11.0475C46.5779 11.0475 46.2554 11.0025 45.9654 10.9125C45.6754 10.8175 45.4279 10.68 45.2229 10.5C45.0229 10.32 44.8679 10.0975 44.7579 9.83249C44.6479 9.56249 44.5929 9.25249 44.5929 8.90249C44.5929 8.62249 44.6629 8.33999 44.8029 8.05499C44.9429 7.76499 45.1854 7.50249 45.5304 7.26749C45.8754 7.02749 46.3404 6.82749 46.9254 6.66749C47.5104 6.50749 48.2479 6.41749 49.1379 6.39749V6.06749C49.1379 5.61249 49.0429 5.28499 48.8529 5.08499C48.6679 4.87999 48.4029 4.77749 48.0579 4.77749C47.7829 4.77749 47.5579 4.80749 47.3829 4.86749C47.2079 4.92749 47.0504 4.99499 46.9104 5.06999C46.7754 5.14499 46.6429 5.21249 46.5129 5.27249C46.3829 5.33249 46.2279 5.36249 46.0479 5.36249C45.8879 5.36249 45.7529 5.32249 45.6429 5.24249C45.5329 5.16249 45.4429 5.06749 45.3729 4.95749L44.9529 4.22999ZM55.8516 6.62999C56.2366 6.62999 56.5141 6.53499 56.6841 6.34499C56.8591 6.14999 56.9466 5.89999 56.9466 5.59499C56.9466 5.27999 56.8591 5.03249 56.6841 4.85249C56.5141 4.67249 56.2366 4.58249 55.8516 4.58249C55.4666 4.58249 55.1866 4.67249 55.0116 4.85249C54.8416 5.03249 54.7566 5.27999 54.7566 5.59499C54.7566 5.74499 54.7766 5.88249 54.8166 6.00749C54.8616 6.13249 54.9291 6.24249 55.0191 6.33749C55.1091 6.42749 55.2216 6.49999 55.3566 6.55499C55.4966 6.60499 55.6616 6.62999 55.8516 6.62999ZM57.6516 11.2125C57.6516 11.0275 57.5691 10.895 57.4041 10.815C57.2391 10.73 57.0241 10.67 56.7591 10.635C56.4941 10.6 56.1966 10.58 55.8666 10.575C55.5416 10.565 55.2166 10.545 54.8916 10.515C54.7466 10.615 54.6266 10.7275 54.5316 10.8525C54.4416 10.9725 54.3966 11.11 54.3966 11.265C54.3966 11.375 54.4191 11.475 54.4641 11.565C54.5141 11.655 54.5991 11.7325 54.7191 11.7975C54.8391 11.8625 54.9991 11.9125 55.1991 11.9475C55.4041 11.9875 55.6616 12.0075 55.9716 12.0075C56.3066 12.0075 56.5816 11.9875 56.7966 11.9475C57.0116 11.9075 57.1816 11.8525 57.3066 11.7825C57.4366 11.7125 57.5266 11.6275 57.5766 11.5275C57.6266 11.4325 57.6516 11.3275 57.6516 11.2125ZM59.9466 3.38999V4.23749C59.9466 4.36749 59.9091 4.46999 59.8341 4.54499C59.7641 4.61999 59.6416 4.67749 59.4666 4.71749L58.9041 4.84499C58.9341 4.95499 58.9566 5.06749 58.9716 5.18249C58.9916 5.29749 59.0016 5.41749 59.0016 5.54249C59.0016 5.93249 58.9191 6.28249 58.7541 6.59249C58.5941 6.90249 58.3716 7.16749 58.0866 7.38749C57.8066 7.60249 57.4741 7.76999 57.0891 7.88999C56.7041 8.00499 56.2916 8.06249 55.8516 8.06249C55.7316 8.06249 55.6141 8.05999 55.4991 8.05499C55.3841 8.04499 55.2716 8.02999 55.1616 8.00999C54.9916 8.11499 54.9066 8.23249 54.9066 8.36249C54.9066 8.49249 54.9766 8.58749 55.1166 8.64749C55.2566 8.70249 55.4416 8.74249 55.6716 8.76749C55.9016 8.78749 56.1616 8.80249 56.4516 8.81249C56.7466 8.81749 57.0466 8.83499 57.3516 8.86499C57.6566 8.88999 57.9541 8.93499 58.2441 8.99999C58.5391 9.06499 58.8016 9.16999 59.0316 9.31499C59.2616 9.45999 59.4466 9.65499 59.5866 9.89999C59.7266 10.14 59.7966 10.4475 59.7966 10.8225C59.7966 11.1725 59.7116 11.515 59.5416 11.85C59.3716 12.185 59.1216 12.4825 58.7916 12.7425C58.4616 13.0025 58.0566 13.21 57.5766 13.365C57.0966 13.525 56.5466 13.605 55.9266 13.605C55.3166 13.605 54.7891 13.5475 54.3441 13.4325C53.9041 13.3175 53.5366 13.165 53.2416 12.975C52.9516 12.79 52.7366 12.575 52.5966 12.33C52.4566 12.085 52.3866 11.83 52.3866 11.565C52.3866 11.22 52.4866 10.9325 52.6866 10.7025C52.8866 10.4725 53.1666 10.2875 53.5266 10.1475C53.3366 10.0325 53.1866 9.88499 53.0766 9.70499C52.9666 9.52499 52.9116 9.29249 52.9116 9.00749C52.9116 8.89249 52.9316 8.77249 52.9716 8.64749C53.0116 8.51749 53.0741 8.39249 53.1591 8.27249C53.2491 8.14749 53.3591 8.02999 53.4891 7.91999C53.6191 7.80999 53.7741 7.71249 53.9541 7.62749C53.5491 7.41249 53.2291 7.12999 52.9941 6.77999C52.7591 6.42499 52.6416 6.01249 52.6416 5.54249C52.6416 5.15249 52.7241 4.80249 52.8891 4.49249C53.0541 4.17749 53.2791 3.91249 53.5641 3.69749C53.8541 3.47749 54.1941 3.30999 54.5841 3.19499C54.9741 3.07499 55.3966 3.01499 55.8516 3.01499C56.5116 3.01499 57.0966 3.13999 57.6066 3.38999H59.9466ZM65.6074 6.10499C65.6074 5.91999 65.5824 5.73999 65.5324 5.56499C65.4874 5.38999 65.4099 5.23499 65.2999 5.09999C65.1949 4.95999 65.0549 4.84749 64.8799 4.76249C64.7049 4.67749 64.4924 4.63499 64.2424 4.63499C63.8024 4.63499 63.4574 4.76249 63.2074 5.01749C62.9574 5.26749 62.7924 5.62999 62.7124 6.10499H65.6074ZM62.6824 7.45499C62.7574 8.10499 62.9549 8.57749 63.2749 8.87249C63.5949 9.16249 64.0074 9.30749 64.5124 9.30749C64.7824 9.30749 65.0149 9.27499 65.2099 9.20999C65.4049 9.14499 65.5774 9.07249 65.7274 8.99249C65.8824 8.91249 66.0224 8.83999 66.1474 8.77499C66.2774 8.70999 66.4124 8.67749 66.5524 8.67749C66.7374 8.67749 66.8774 8.74499 66.9724 8.87999L67.6474 9.71249C67.4074 9.98749 67.1474 10.2125 66.8674 10.3875C66.5924 10.5575 66.3074 10.6925 66.0124 10.7925C65.7224 10.8875 65.4299 10.9525 65.1349 10.9875C64.8449 11.0275 64.5674 11.0475 64.3024 11.0475C63.7574 11.0475 63.2449 10.96 62.7649 10.785C62.2899 10.605 61.8724 10.34 61.5124 9.98999C61.1574 9.63999 60.8749 9.20499 60.6649 8.68499C60.4599 8.16499 60.3574 7.55999 60.3574 6.86999C60.3574 6.34999 60.4449 5.85749 60.6199 5.39249C60.7999 4.92749 61.0549 4.51999 61.3849 4.16999C61.7199 3.81999 62.1224 3.54249 62.5924 3.33749C63.0674 3.13249 63.6024 3.02999 64.1974 3.02999C64.7124 3.02999 65.1824 3.10999 65.6074 3.26999C66.0374 3.42999 66.4049 3.66249 66.7099 3.96749C67.0199 4.27249 67.2599 4.64749 67.4299 5.09249C67.6049 5.53249 67.6924 6.03249 67.6924 6.59249C67.6924 6.76749 67.6849 6.90999 67.6699 7.01999C67.6549 7.12999 67.6274 7.21749 67.5874 7.28249C67.5474 7.34749 67.4924 7.39249 67.4224 7.41749C67.3574 7.44249 67.2724 7.45499 67.1674 7.45499H62.6824Z" fill="#0CB9C1"/>
</svg>
