<svg width="94" height="14" viewBox="0 0 94 14" fill="none" xmlns="http://www.w3.org/2000/svg">
<path d="M3.85488 5.70746C4.51488 5.70746 4.98988 5.54996 5.27988 5.23496C5.56988 4.91996 5.71488 4.47996 5.71488 3.91496C5.71488 3.66496 5.67738 3.43746 5.60238 3.23246C5.52738 3.02746 5.41238 2.85246 5.25738 2.70746C5.10738 2.55746 4.91488 2.44246 4.67988 2.36246C4.44988 2.28246 4.17488 2.24246 3.85488 2.24246H2.53488V5.70746H3.85488ZM3.85488 0.344961C4.62488 0.344961 5.28488 0.437461 5.83488 0.62246C6.38988 0.80246 6.84488 1.05246 7.19988 1.37246C7.55988 1.69246 7.82488 2.06996 7.99488 2.50496C8.16488 2.93996 8.24988 3.40996 8.24988 3.91496C8.24988 4.45996 8.16238 4.95996 7.98738 5.41496C7.81238 5.86996 7.54488 6.25996 7.18488 6.58496C6.82488 6.90996 6.36738 7.16496 5.81238 7.34996C5.26238 7.52996 4.60988 7.61996 3.85488 7.61996H2.53488V11.2725H-0.000117168V0.344961H3.85488ZM11.3385 4.69496C11.5785 4.27496 11.8535 3.94496 12.1635 3.70496C12.4785 3.46496 12.8385 3.34496 13.2435 3.34496C13.5935 3.34496 13.8785 3.42746 14.0985 3.59246L13.9485 5.30246C13.9235 5.41246 13.881 5.48746 13.821 5.52746C13.766 5.56746 13.6885 5.58746 13.5885 5.58746C13.5485 5.58746 13.496 5.58496 13.431 5.57996C13.366 5.57496 13.2985 5.56996 13.2285 5.56496C13.1585 5.55496 13.086 5.54746 13.011 5.54246C12.941 5.53246 12.876 5.52746 12.816 5.52746C12.476 5.52746 12.2035 5.61746 11.9985 5.79746C11.7985 5.97746 11.6285 6.22746 11.4885 6.54746V11.2725H9.16348V3.49496H10.5435C10.6585 3.49496 10.7535 3.50496 10.8285 3.52496C10.9085 3.54496 10.9735 3.57746 11.0235 3.62246C11.0785 3.66246 11.1185 3.71746 11.1435 3.78746C11.1735 3.85746 11.1985 3.94246 11.2185 4.04246L11.3385 4.69496ZM19.5967 6.44996C19.5967 6.26496 19.5717 6.08496 19.5217 5.90996C19.4767 5.73496 19.3992 5.57996 19.2892 5.44496C19.1842 5.30496 19.0442 5.19246 18.8692 5.10746C18.6942 5.02246 18.4817 4.97996 18.2317 4.97996C17.7917 4.97996 17.4467 5.10746 17.1967 5.36246C16.9467 5.61246 16.7817 5.97496 16.7017 6.44996H19.5967ZM16.6717 7.79996C16.7467 8.44996 16.9442 8.92246 17.2642 9.21746C17.5842 9.50746 17.9967 9.65246 18.5017 9.65246C18.7717 9.65246 19.0042 9.61996 19.1992 9.55496C19.3942 9.48996 19.5667 9.41746 19.7167 9.33746C19.8717 9.25746 20.0117 9.18496 20.1367 9.11996C20.2667 9.05496 20.4017 9.02246 20.5417 9.02246C20.7267 9.02246 20.8667 9.08996 20.9617 9.22496L21.6367 10.0575C21.3967 10.3325 21.1367 10.5575 20.8567 10.7325C20.5817 10.9025 20.2967 11.0375 20.0017 11.1375C19.7117 11.2325 19.4192 11.2975 19.1242 11.3325C18.8342 11.3725 18.5567 11.3925 18.2917 11.3925C17.7467 11.3925 17.2342 11.305 16.7542 11.13C16.2792 10.95 15.8617 10.685 15.5017 10.335C15.1467 9.98496 14.8642 9.54996 14.6542 9.02996C14.4492 8.50996 14.3467 7.90496 14.3467 7.21496C14.3467 6.69496 14.4342 6.20246 14.6092 5.73746C14.7892 5.27246 15.0442 4.86496 15.3742 4.51496C15.7092 4.16496 16.1117 3.88746 16.5817 3.68246C17.0567 3.47746 17.5917 3.37496 18.1867 3.37496C18.7017 3.37496 19.1717 3.45496 19.5967 3.61496C20.0267 3.77496 20.3942 4.00746 20.6992 4.31246C21.0092 4.61746 21.2492 4.99246 21.4192 5.43746C21.5942 5.87746 21.6817 6.37746 21.6817 6.93746C21.6817 7.11246 21.6742 7.25496 21.6592 7.36496C21.6442 7.47496 21.6167 7.56246 21.5767 7.62746C21.5367 7.69246 21.4817 7.73746 21.4117 7.76246C21.3467 7.78746 21.2617 7.79996 21.1567 7.79996H16.6717ZM29.9529 3.49496L26.9379 11.2725H24.8229L21.8079 3.49496H23.7429C23.9079 3.49496 24.0454 3.53496 24.1554 3.61496C24.2704 3.68996 24.3479 3.78496 24.3879 3.89996L25.4679 7.38746C25.5629 7.67246 25.6454 7.94996 25.7154 8.21996C25.7904 8.48996 25.8554 8.75996 25.9104 9.02996C26.0204 8.48996 26.1729 7.94246 26.3679 7.38746L27.4929 3.89996C27.5329 3.78496 27.6079 3.68996 27.7179 3.61496C27.8279 3.53496 27.9579 3.49496 28.1079 3.49496H29.9529ZM33.0888 3.49496V11.2725H30.7638V3.49496H33.0888ZM33.3288 1.36496C33.3288 1.54996 33.2913 1.72496 33.2163 1.88996C33.1413 2.04996 33.0388 2.19246 32.9088 2.31746C32.7788 2.43746 32.6263 2.53496 32.4513 2.60996C32.2813 2.67996 32.0988 2.71496 31.9038 2.71496C31.7138 2.71496 31.5363 2.67996 31.3713 2.60996C31.2063 2.53496 31.0588 2.43746 30.9288 2.31746C30.8038 2.19246 30.7038 2.04996 30.6288 1.88996C30.5588 1.72496 30.5238 1.54996 30.5238 1.36496C30.5238 1.17496 30.5588 0.99746 30.6288 0.83246C30.7038 0.66746 30.8038 0.52246 30.9288 0.397461C31.0588 0.272461 31.2063 0.174961 31.3713 0.10496C31.5363 0.0349606 31.7138 -3.92199e-05 31.9038 -3.92199e-05C32.0988 -3.92199e-05 32.2813 0.0349606 32.4513 0.10496C32.6263 0.174961 32.7788 0.272461 32.9088 0.397461C33.0388 0.52246 33.1413 0.66746 33.2163 0.83246C33.2913 0.99746 33.3288 1.17496 33.3288 1.36496ZM38.2954 3.37496C38.8854 3.37496 39.4229 3.46746 39.9079 3.65246C40.3929 3.83746 40.8079 4.10246 41.1529 4.44746C41.5029 4.79246 41.7729 5.21246 41.9629 5.70746C42.1579 6.19746 42.2554 6.74996 42.2554 7.36496C42.2554 7.98496 42.1579 8.54496 41.9629 9.04496C41.7729 9.53996 41.5029 9.96246 41.1529 10.3125C40.8079 10.6575 40.3929 10.925 39.9079 11.115C39.4229 11.3 38.8854 11.3925 38.2954 11.3925C37.7004 11.3925 37.1579 11.3 36.6679 11.115C36.1829 10.925 35.7629 10.6575 35.4079 10.3125C35.0579 9.96246 34.7854 9.53996 34.5904 9.04496C34.4004 8.54496 34.3054 7.98496 34.3054 7.36496C34.3054 6.74996 34.4004 6.19746 34.5904 5.70746C34.7854 5.21246 35.0579 4.79246 35.4079 4.44746C35.7629 4.10246 36.1829 3.83746 36.6679 3.65246C37.1579 3.46746 37.7004 3.37496 38.2954 3.37496ZM38.2954 9.66746C38.8304 9.66746 39.2229 9.47996 39.4729 9.10496C39.7279 8.72496 39.8554 8.14996 39.8554 7.37996C39.8554 6.60996 39.7279 6.03746 39.4729 5.66246C39.2229 5.28746 38.8304 5.09996 38.2954 5.09996C37.7454 5.09996 37.3429 5.28746 37.0879 5.66246C36.8329 6.03746 36.7054 6.60996 36.7054 7.37996C36.7054 8.14996 36.8329 8.72496 37.0879 9.10496C37.3429 9.47996 37.7454 9.66746 38.2954 9.66746ZM50.4012 3.49496V11.2725H48.9612C48.6712 11.2725 48.4812 11.1425 48.3912 10.8825L48.2562 10.4325C48.1062 10.5775 47.9512 10.71 47.7912 10.83C47.6312 10.945 47.4587 11.045 47.2737 11.13C47.0937 11.21 46.8962 11.2725 46.6812 11.3175C46.4712 11.3675 46.2412 11.3925 45.9912 11.3925C45.5662 11.3925 45.1887 11.32 44.8587 11.175C44.5337 11.025 44.2587 10.8175 44.0337 10.5525C43.8087 10.2875 43.6387 9.97496 43.5237 9.61496C43.4087 9.25496 43.3512 8.85996 43.3512 8.42996V3.49496H45.6762V8.42996C45.6762 8.81496 45.7637 9.11246 45.9387 9.32246C46.1137 9.53246 46.3712 9.63746 46.7112 9.63746C46.9662 9.63746 47.2037 9.58496 47.4237 9.47996C47.6487 9.36996 47.8662 9.22246 48.0762 9.03746V3.49496H50.4012ZM56.9234 5.19746C56.8634 5.29246 56.7984 5.35996 56.7284 5.39996C56.6634 5.43996 56.5784 5.45996 56.4734 5.45996C56.3634 5.45996 56.2534 5.43746 56.1434 5.39246C56.0334 5.34246 55.9134 5.28996 55.7834 5.23496C55.6584 5.17996 55.5159 5.12996 55.3559 5.08496C55.1959 5.03496 55.0134 5.00996 54.8084 5.00996C54.5134 5.00996 54.2859 5.06746 54.1259 5.18246C53.9709 5.29246 53.8934 5.44746 53.8934 5.64746C53.8934 5.79246 53.9434 5.91246 54.0434 6.00746C54.1484 6.10246 54.2859 6.18746 54.4559 6.26246C54.6259 6.33246 54.8184 6.39996 55.0334 6.46496C55.2484 6.52996 55.4684 6.60246 55.6934 6.68246C55.9184 6.76246 56.1384 6.85746 56.3534 6.96746C56.5684 7.07246 56.7609 7.20496 56.9309 7.36496C57.1009 7.51996 57.2359 7.70996 57.3359 7.93496C57.4409 8.15996 57.4934 8.42996 57.4934 8.74496C57.4934 9.12996 57.4234 9.48496 57.2834 9.80996C57.1434 10.135 56.9334 10.415 56.6534 10.65C56.3784 10.885 56.0359 11.0675 55.6259 11.1975C55.2209 11.3275 54.7534 11.3925 54.2234 11.3925C53.9584 11.3925 53.6934 11.3675 53.4284 11.3175C53.1634 11.2675 52.9059 11.2 52.6559 11.115C52.4109 11.03 52.1834 10.93 51.9734 10.815C51.7634 10.695 51.5834 10.5675 51.4334 10.4325L51.9734 9.57746C52.0334 9.47746 52.1084 9.39996 52.1984 9.34496C52.2934 9.28496 52.4134 9.25496 52.5584 9.25496C52.6934 9.25496 52.8134 9.28496 52.9184 9.34496C53.0284 9.40496 53.1459 9.46996 53.2709 9.53996C53.3959 9.60996 53.5409 9.67496 53.7059 9.73496C53.8759 9.79496 54.0884 9.82496 54.3434 9.82496C54.5234 9.82496 54.6759 9.80746 54.8009 9.77246C54.9259 9.73246 55.0259 9.67996 55.1009 9.61496C55.1759 9.54996 55.2309 9.47746 55.2659 9.39746C55.3009 9.31746 55.3184 9.23496 55.3184 9.14996C55.3184 8.99496 55.2659 8.86746 55.1609 8.76746C55.0559 8.66746 54.9184 8.58246 54.7484 8.51246C54.5784 8.43746 54.3834 8.36996 54.1634 8.30996C53.9484 8.24496 53.7284 8.17246 53.5034 8.09246C53.2784 8.01246 53.0559 7.91746 52.8359 7.80746C52.6209 7.69246 52.4284 7.54996 52.2584 7.37996C52.0884 7.20496 51.9509 6.99246 51.8459 6.74246C51.7409 6.49246 51.6884 6.18996 51.6884 5.83496C51.6884 5.50496 51.7509 5.19246 51.8759 4.89746C52.0059 4.59746 52.1984 4.33496 52.4534 4.10996C52.7084 3.88496 53.0284 3.70746 53.4134 3.57746C53.7984 3.44246 54.2484 3.37496 54.7634 3.37496C55.0434 3.37496 55.3134 3.39996 55.5734 3.44996C55.8384 3.49996 56.0859 3.56996 56.3159 3.65996C56.5459 3.74996 56.7559 3.85746 56.9459 3.98246C57.1359 4.10246 57.3034 4.23496 57.4484 4.37996L56.9234 5.19746ZM64.4572 9.15746C64.6322 9.34746 64.8222 9.48246 65.0272 9.56246C65.2322 9.64246 65.4472 9.68246 65.6722 9.68246C65.8872 9.68246 66.0847 9.63996 66.2647 9.55496C66.4447 9.46996 66.5997 9.33496 66.7297 9.14996C66.8647 8.95996 66.9697 8.71496 67.0447 8.41496C67.1197 8.11496 67.1572 7.74996 67.1572 7.31996C67.1572 6.90996 67.1272 6.56496 67.0672 6.28496C67.0072 6.00496 66.9222 5.77996 66.8122 5.60996C66.7072 5.43496 66.5797 5.30996 66.4297 5.23496C66.2797 5.15996 66.1122 5.12246 65.9272 5.12246C65.5872 5.12246 65.3072 5.18496 65.0872 5.30996C64.8672 5.43496 64.6572 5.61746 64.4572 5.85746V9.15746ZM64.3147 4.45496C64.6197 4.12996 64.9647 3.86496 65.3497 3.65996C65.7397 3.44996 66.2022 3.34496 66.7372 3.34496C67.1422 3.34496 67.5172 3.43496 67.8622 3.61496C68.2072 3.79496 68.5047 4.05496 68.7547 4.39496C69.0047 4.73496 69.1997 5.15246 69.3397 5.64746C69.4847 6.13746 69.5572 6.69496 69.5572 7.31996C69.5572 7.90496 69.4747 8.44496 69.3097 8.93996C69.1497 9.43496 68.9222 9.86496 68.6272 10.23C68.3372 10.595 67.9872 10.88 67.5772 11.085C67.1722 11.29 66.7222 11.3925 66.2272 11.3925C65.8222 11.3925 65.4822 11.335 65.2072 11.22C64.9322 11.105 64.6822 10.95 64.4572 10.755V13.74H62.1322V3.49496H63.5722C63.8622 3.49496 64.0522 3.62496 64.1422 3.88496L64.3147 4.45496ZM74.7727 8.10746C74.3077 8.12746 73.9252 8.16746 73.6252 8.22746C73.3252 8.28746 73.0877 8.36246 72.9127 8.45246C72.7377 8.54246 72.6152 8.64496 72.5452 8.75996C72.4802 8.87496 72.4477 8.99996 72.4477 9.13496C72.4477 9.39996 72.5202 9.58746 72.6652 9.69746C72.8102 9.80246 73.0227 9.85496 73.3027 9.85496C73.6027 9.85496 73.8652 9.80246 74.0902 9.69746C74.3152 9.59246 74.5427 9.42246 74.7727 9.18746V8.10746ZM70.5877 4.57496C71.0577 4.15996 71.5777 3.85246 72.1477 3.65246C72.7227 3.44746 73.3377 3.34496 73.9927 3.34496C74.4627 3.34496 74.8852 3.42246 75.2602 3.57746C75.6402 3.72746 75.9602 3.93996 76.2202 4.21496C76.4852 4.48496 76.6877 4.80746 76.8277 5.18246C76.9677 5.55746 77.0377 5.96746 77.0377 6.41246V11.2725H75.9727C75.7527 11.2725 75.5852 11.2425 75.4702 11.1825C75.3602 11.1225 75.2677 10.9975 75.1927 10.8075L75.0277 10.38C74.8327 10.545 74.6452 10.69 74.4652 10.815C74.2852 10.94 74.0977 11.0475 73.9027 11.1375C73.7127 11.2225 73.5077 11.285 73.2877 11.325C73.0727 11.37 72.8327 11.3925 72.5677 11.3925C72.2127 11.3925 71.8902 11.3475 71.6002 11.2575C71.3102 11.1625 71.0627 11.025 70.8577 10.845C70.6577 10.665 70.5027 10.4425 70.3927 10.1775C70.2827 9.90746 70.2277 9.59746 70.2277 9.24746C70.2277 8.96746 70.2977 8.68496 70.4377 8.39996C70.5777 8.10996 70.8202 7.84746 71.1652 7.61246C71.5102 7.37246 71.9752 7.17246 72.5602 7.01246C73.1452 6.85246 73.8827 6.76246 74.7727 6.74246V6.41246C74.7727 5.95746 74.6777 5.62996 74.4877 5.42996C74.3027 5.22496 74.0377 5.12246 73.6927 5.12246C73.4177 5.12246 73.1927 5.15246 73.0177 5.21246C72.8427 5.27246 72.6852 5.33996 72.5452 5.41496C72.4102 5.48996 72.2777 5.55746 72.1477 5.61746C72.0177 5.67746 71.8627 5.70746 71.6827 5.70746C71.5227 5.70746 71.3877 5.66746 71.2777 5.58746C71.1677 5.50746 71.0777 5.41246 71.0077 5.30246L70.5877 4.57496ZM81.4863 6.97496C81.8713 6.97496 82.1488 6.87996 82.3188 6.68996C82.4938 6.49496 82.5813 6.24496 82.5813 5.93996C82.5813 5.62496 82.4938 5.37746 82.3188 5.19746C82.1488 5.01746 81.8713 4.92746 81.4863 4.92746C81.1013 4.92746 80.8213 5.01746 80.6463 5.19746C80.4763 5.37746 80.3913 5.62496 80.3913 5.93996C80.3913 6.08996 80.4113 6.22746 80.4513 6.35246C80.4963 6.47746 80.5638 6.58746 80.6538 6.68246C80.7438 6.77246 80.8563 6.84496 80.9913 6.89996C81.1313 6.94996 81.2963 6.97496 81.4863 6.97496ZM83.2863 11.5575C83.2863 11.3725 83.2038 11.24 83.0388 11.16C82.8738 11.075 82.6588 11.015 82.3938 10.98C82.1288 10.945 81.8313 10.925 81.5013 10.92C81.1763 10.91 80.8513 10.89 80.5263 10.86C80.3813 10.96 80.2613 11.0725 80.1663 11.1975C80.0763 11.3175 80.0313 11.455 80.0313 11.61C80.0313 11.72 80.0538 11.82 80.0988 11.91C80.1488 12 80.2338 12.0775 80.3538 12.1425C80.4738 12.2075 80.6338 12.2575 80.8338 12.2925C81.0388 12.3325 81.2963 12.3525 81.6063 12.3525C81.9413 12.3525 82.2163 12.3325 82.4313 12.2925C82.6463 12.2525 82.8163 12.1975 82.9413 12.1275C83.0713 12.0575 83.1613 11.9725 83.2113 11.8725C83.2613 11.7775 83.2863 11.6725 83.2863 11.5575ZM85.5813 3.73496V4.58246C85.5813 4.71246 85.5438 4.81496 85.4688 4.88996C85.3988 4.96496 85.2763 5.02246 85.1013 5.06246L84.5388 5.18996C84.5688 5.29996 84.5913 5.41246 84.6063 5.52746C84.6263 5.64246 84.6363 5.76246 84.6363 5.88746C84.6363 6.27746 84.5538 6.62746 84.3888 6.93746C84.2288 7.24746 84.0063 7.51246 83.7213 7.73246C83.4413 7.94746 83.1088 8.11496 82.7238 8.23496C82.3388 8.34996 81.9263 8.40746 81.4863 8.40746C81.3663 8.40746 81.2488 8.40496 81.1338 8.39996C81.0188 8.38996 80.9063 8.37496 80.7963 8.35496C80.6263 8.45996 80.5413 8.57746 80.5413 8.70746C80.5413 8.83746 80.6113 8.93246 80.7513 8.99246C80.8913 9.04746 81.0763 9.08746 81.3063 9.11246C81.5363 9.13246 81.7963 9.14746 82.0863 9.15746C82.3813 9.16246 82.6813 9.17996 82.9863 9.20996C83.2913 9.23496 83.5888 9.27996 83.8788 9.34496C84.1738 9.40996 84.4363 9.51496 84.6663 9.65996C84.8963 9.80496 85.0813 9.99996 85.2213 10.245C85.3613 10.485 85.4313 10.7925 85.4313 11.1675C85.4313 11.5175 85.3463 11.86 85.1763 12.195C85.0063 12.53 84.7563 12.8275 84.4263 13.0875C84.0963 13.3475 83.6913 13.555 83.2113 13.71C82.7313 13.87 82.1813 13.95 81.5613 13.95C80.9513 13.95 80.4238 13.8925 79.9788 13.7775C79.5388 13.6625 79.1713 13.51 78.8763 13.32C78.5863 13.135 78.3713 12.92 78.2313 12.675C78.0913 12.43 78.0213 12.175 78.0213 11.91C78.0213 11.565 78.1213 11.2775 78.3213 11.0475C78.5213 10.8175 78.8013 10.6325 79.1613 10.4925C78.9713 10.3775 78.8213 10.23 78.7113 10.05C78.6013 9.86996 78.5463 9.63746 78.5463 9.35246C78.5463 9.23746 78.5663 9.11746 78.6063 8.99246C78.6463 8.86246 78.7088 8.73746 78.7938 8.61746C78.8838 8.49246 78.9938 8.37496 79.1238 8.26496C79.2538 8.15496 79.4088 8.05746 79.5888 7.97246C79.1838 7.75746 78.8638 7.47496 78.6288 7.12496C78.3938 6.76996 78.2763 6.35746 78.2763 5.88746C78.2763 5.49746 78.3588 5.14746 78.5238 4.83746C78.6888 4.52246 78.9138 4.25746 79.1988 4.04246C79.4888 3.82246 79.8288 3.65496 80.2188 3.53996C80.6088 3.41996 81.0313 3.35996 81.4863 3.35996C82.1463 3.35996 82.7313 3.48496 83.2413 3.73496H85.5813ZM91.2422 6.44996C91.2422 6.26496 91.2172 6.08496 91.1672 5.90996C91.1222 5.73496 91.0447 5.57996 90.9347 5.44496C90.8297 5.30496 90.6897 5.19246 90.5147 5.10746C90.3397 5.02246 90.1272 4.97996 89.8772 4.97996C89.4372 4.97996 89.0922 5.10746 88.8422 5.36246C88.5922 5.61246 88.4272 5.97496 88.3472 6.44996H91.2422ZM88.3172 7.79996C88.3922 8.44996 88.5897 8.92246 88.9097 9.21746C89.2297 9.50746 89.6422 9.65246 90.1472 9.65246C90.4172 9.65246 90.6497 9.61996 90.8447 9.55496C91.0397 9.48996 91.2122 9.41746 91.3622 9.33746C91.5172 9.25746 91.6572 9.18496 91.7822 9.11996C91.9122 9.05496 92.0472 9.02246 92.1872 9.02246C92.3722 9.02246 92.5122 9.08996 92.6072 9.22496L93.2822 10.0575C93.0422 10.3325 92.7822 10.5575 92.5022 10.7325C92.2272 10.9025 91.9422 11.0375 91.6472 11.1375C91.3572 11.2325 91.0647 11.2975 90.7697 11.3325C90.4797 11.3725 90.2022 11.3925 89.9372 11.3925C89.3922 11.3925 88.8797 11.305 88.3997 11.13C87.9247 10.95 87.5072 10.685 87.1472 10.335C86.7922 9.98496 86.5097 9.54996 86.2997 9.02996C86.0947 8.50996 85.9922 7.90496 85.9922 7.21496C85.9922 6.69496 86.0797 6.20246 86.2547 5.73746C86.4347 5.27246 86.6897 4.86496 87.0197 4.51496C87.3547 4.16496 87.7572 3.88746 88.2272 3.68246C88.7022 3.47746 89.2372 3.37496 89.8322 3.37496C90.3472 3.37496 90.8172 3.45496 91.2422 3.61496C91.6722 3.77496 92.0397 4.00746 92.3447 4.31246C92.6547 4.61746 92.8947 4.99246 93.0647 5.43746C93.2397 5.87746 93.3272 6.37746 93.3272 6.93746C93.3272 7.11246 93.3197 7.25496 93.3047 7.36496C93.2897 7.47496 93.2622 7.56246 93.2222 7.62746C93.1822 7.69246 93.1272 7.73746 93.0572 7.76246C92.9922 7.78746 92.9072 7.79996 92.8022 7.79996H88.3172Z" fill="#0CB9C1"/>
</svg>
